// generated by esys.pycad
General.Terminal = 1;
General.ExpertMode = 1;
Mesh.Optimize = 0;
Mesh.CharacteristicLengthFromCurvature = 0;
Mesh.SubdivisionAlgorithm = 0;
Mesh.Smoothing = 1;
Mesh.RandomFactor = 1.00000000000000e-09;
Mesh.Algorithm = 1; // = MeshAdapt
Mesh.Algorithm3D = 4; // = Frontal
Point(63) = {0.00000000000000e+00, 0.00000000000000e+00, 0.00000000000000e+00, 4.00000000000000e+00};
Point(64) = {4.00000000000000e+01, 0.00000000000000e+00, 0.00000000000000e+00, 4.00000000000000e+00};
Point(65) = {4.00000000000000e+01, 4.00000000000000e+01, 0.00000000000000e+00, 4.00000000000000e+00};
Point(66) = {0.00000000000000e+00, 4.00000000000000e+01, 0.00000000000000e+00, 4.00000000000000e+00};
Line(67) = {63, 64};
Line(68) = {64, 65};
Line(69) = {65, 66};
Line(70) = {66, 63};
Line Loop(71) = {67, 68, 69, 70};
Plane Surface(72) = {71};
Physical Surface(73) = {72};
Point(74) = {0.00000000000000e+00, 0.00000000000000e+00, 1.00000000000000e-01, 4.00000000000000e+00};
Point(75) = {4.00000000000000e+01, 0.00000000000000e+00, 1.00000000000000e-01, 4.00000000000000e+00};
Point(76) = {4.00000000000000e+01, 4.00000000000000e+01, 1.00000000000000e-01, 4.00000000000000e+00};
Point(77) = {0.00000000000000e+00, 4.00000000000000e+01, 1.00000000000000e-01, 4.00000000000000e+00};
Line(78) = {74, 75};
Line(79) = {75, 76};
Line(80) = {76, 77};
Line(81) = {77, 74};
Line(82) = {63, 74};
Line(83) = {64, 75};
Line(84) = {65, 76};
Line(85) = {66, 77};
Line Loop(86) = {78, 79, 80, 81};
Plane Surface(87) = {86};
Line Loop(88) = {-82, -78, 83, 67};
Plane Surface(89) = {88};
Line Loop(90) = {-83, -79, 84, 68};
Plane Surface(91) = {90};
Line Loop(92) = {-84, -80, 85, 69};
Plane Surface(93) = {92};
Line Loop(94) = {-85, -81, 82, 70};
Plane Surface(95) = {94};
Surface Loop(96) = {-72, 87, 89, 91, 93, 95};
Volume(97) = {-96};
Physical Surface(98) = {87};
Physical Volume(99) = {97};
Point(100) = {0.00000000000000e+00, 0.00000000000000e+00, 3.00000000000000e-01, 4.00000000000000e+00};
Point(101) = {4.00000000000000e+01, 0.00000000000000e+00, 3.00000000000000e-01, 4.00000000000000e+00};
Point(102) = {4.00000000000000e+01, 4.00000000000000e+01, 3.00000000000000e-01, 4.00000000000000e+00};
Point(103) = {0.00000000000000e+00, 4.00000000000000e+01, 3.00000000000000e-01, 4.00000000000000e+00};
Line(104) = {100, 101};
Line(105) = {101, 102};
Line(106) = {102, 103};
Line(107) = {103, 100};
Line(108) = {74, 100};
Line(109) = {75, 101};
Line(110) = {76, 102};
Line(111) = {77, 103};
Line Loop(112) = {104, 105, 106, 107};
Plane Surface(113) = {112};
Line Loop(114) = {-108, -104, 109, 78};
Plane Surface(115) = {114};
Line Loop(116) = {-109, -105, 110, 79};
Plane Surface(117) = {116};
Line Loop(118) = {-110, -106, 111, 80};
Plane Surface(119) = {118};
Line Loop(120) = {-111, -107, 108, 81};
Plane Surface(121) = {120};
Surface Loop(122) = {87, 113, 115, 117, 119, 121};
Volume(123) = {-122};
Physical Surface(124) = {113};
Physical Volume(125) = {123};
Point(126) = {0.00000000000000e+00, 0.00000000000000e+00, 5.00000000000000e-01, 4.00000000000000e+00};
Point(127) = {4.00000000000000e+01, 0.00000000000000e+00, 5.00000000000000e-01, 4.00000000000000e+00};
Point(128) = {4.00000000000000e+01, 4.00000000000000e+01, 5.00000000000000e-01, 4.00000000000000e+00};
Point(129) = {0.00000000000000e+00, 4.00000000000000e+01, 5.00000000000000e-01, 4.00000000000000e+00};
Line(130) = {126, 127};
Line(131) = {127, 128};
Line(132) = {128, 129};
Line(133) = {129, 126};
Line(134) = {100, 126};
Line(135) = {101, 127};
Line(136) = {102, 128};
Line(137) = {103, 129};
Line Loop(138) = {130, 131, 132, 133};
Plane Surface(139) = {138};
Line Loop(140) = {-134, -130, 135, 104};
Plane Surface(141) = {140};
Line Loop(142) = {-135, -131, 136, 105};
Plane Surface(143) = {142};
Line Loop(144) = {-136, -132, 137, 106};
Plane Surface(145) = {144};
Line Loop(146) = {-137, -133, 134, 107};
Plane Surface(147) = {146};
Surface Loop(148) = {113, 139, 141, 143, 145, 147};
Volume(149) = {-148};
Physical Surface(150) = {139};
Physical Volume(151) = {149};
Point(152) = {0.00000000000000e+00, 0.00000000000000e+00, 5.50000000000000e-01, 4.00000000000000e+00};
Point(153) = {4.00000000000000e+01, 0.00000000000000e+00, 5.50000000000000e-01, 4.00000000000000e+00};
Point(154) = {4.00000000000000e+01, 4.00000000000000e+01, 5.50000000000000e-01, 4.00000000000000e+00};
Point(155) = {0.00000000000000e+00, 4.00000000000000e+01, 5.50000000000000e-01, 4.00000000000000e+00};
Line(156) = {152, 153};
Line(157) = {153, 154};
Line(158) = {154, 155};
Line(159) = {155, 152};
Line(160) = {126, 152};
Line(161) = {127, 153};
Line(162) = {128, 154};
Line(163) = {129, 155};
Line Loop(164) = {156, 157, 158, 159};
Plane Surface(165) = {164};
Line Loop(166) = {-160, -156, 161, 130};
Plane Surface(167) = {166};
Line Loop(168) = {-161, -157, 162, 131};
Plane Surface(169) = {168};
Line Loop(170) = {-162, -158, 163, 132};
Plane Surface(171) = {170};
Line Loop(172) = {-163, -159, 160, 133};
Plane Surface(173) = {172};
Surface Loop(174) = {139, 165, 167, 169, 171, 173};
Volume(175) = {-174};
Physical Surface(176) = {165};
Physical Volume(177) = {175};
Point(178) = {0.00000000000000e+00, 0.00000000000000e+00, 8.00000000000000e-01, 4.00000000000000e+00};
Point(179) = {4.00000000000000e+01, 0.00000000000000e+00, 8.00000000000000e-01, 4.00000000000000e+00};
Point(180) = {4.00000000000000e+01, 4.00000000000000e+01, 8.00000000000000e-01, 4.00000000000000e+00};
Point(181) = {0.00000000000000e+00, 4.00000000000000e+01, 8.00000000000000e-01, 4.00000000000000e+00};
Line(182) = {178, 179};
Line(183) = {179, 180};
Line(184) = {180, 181};
Line(185) = {181, 178};
Line(186) = {152, 178};
Line(187) = {153, 179};
Line(188) = {154, 180};
Line(189) = {155, 181};
Line Loop(190) = {182, 183, 184, 185};
Plane Surface(191) = {190};
Line Loop(192) = {-186, -182, 187, 156};
Plane Surface(193) = {192};
Line Loop(194) = {-187, -183, 188, 157};
Plane Surface(195) = {194};
Line Loop(196) = {-188, -184, 189, 158};
Plane Surface(197) = {196};
Line Loop(198) = {-189, -185, 186, 159};
Plane Surface(199) = {198};
Surface Loop(200) = {165, 191, 193, 195, 197, 199};
Volume(201) = {-200};
Physical Surface(202) = {191};
Physical Volume(203) = {201};
Point(204) = {0.00000000000000e+00, 0.00000000000000e+00, 1.00000000000000e+00, 4.00000000000000e+00};
Point(205) = {4.00000000000000e+01, 0.00000000000000e+00, 1.00000000000000e+00, 4.00000000000000e+00};
Point(206) = {4.00000000000000e+01, 4.00000000000000e+01, 1.00000000000000e+00, 4.00000000000000e+00};
Point(207) = {0.00000000000000e+00, 4.00000000000000e+01, 1.00000000000000e+00, 4.00000000000000e+00};
Line(208) = {204, 205};
Line(209) = {205, 206};
Line(210) = {206, 207};
Line(211) = {207, 204};
Line(212) = {178, 204};
Line(213) = {179, 205};
Line(214) = {180, 206};
Line(215) = {181, 207};
Line Loop(216) = {208, 209, 210, 211};
Plane Surface(217) = {216};
Line Loop(218) = {-212, -208, 213, 182};
Plane Surface(219) = {218};
Line Loop(220) = {-213, -209, 214, 183};
Plane Surface(221) = {220};
Line Loop(222) = {-214, -210, 215, 184};
Plane Surface(223) = {222};
Line Loop(224) = {-215, -211, 212, 185};
Plane Surface(225) = {224};
Surface Loop(226) = {191, 217, 219, 221, 223, 225};
Volume(227) = {-226};
Physical Surface(228) = {217};
Physical Volume(229) = {227};
Point(230) = {0.00000000000000e+00, 0.00000000000000e+00, 2.00000000000000e+00, 4.00000000000000e+00};
Point(231) = {4.00000000000000e+01, 0.00000000000000e+00, 2.00000000000000e+00, 4.00000000000000e+00};
Point(232) = {4.00000000000000e+01, 4.00000000000000e+01, 2.00000000000000e+00, 4.00000000000000e+00};
Point(233) = {0.00000000000000e+00, 4.00000000000000e+01, 2.00000000000000e+00, 4.00000000000000e+00};
Line(234) = {230, 231};
Line(235) = {231, 232};
Line(236) = {232, 233};
Line(237) = {233, 230};
Line(238) = {204, 230};
Line(239) = {205, 231};
Line(240) = {206, 232};
Line(241) = {207, 233};
Line Loop(242) = {234, 235, 236, 237};
Plane Surface(243) = {242};
Line Loop(244) = {-238, -234, 239, 208};
Plane Surface(245) = {244};
Line Loop(246) = {-239, -235, 240, 209};
Plane Surface(247) = {246};
Line Loop(248) = {-240, -236, 241, 210};
Plane Surface(249) = {248};
Line Loop(250) = {-241, -237, 238, 211};
Plane Surface(251) = {250};
Surface Loop(252) = {217, 243, 245, 247, 249, 251};
Volume(253) = {-252};
Physical Surface(254) = {243};
Physical Volume(255) = {253};
Point(256) = {0.00000000000000e+00, 0.00000000000000e+00, 2.50000000000000e+00, 4.00000000000000e+00};
Point(257) = {4.00000000000000e+01, 0.00000000000000e+00, 2.50000000000000e+00, 4.00000000000000e+00};
Point(258) = {4.00000000000000e+01, 4.00000000000000e+01, 2.50000000000000e+00, 4.00000000000000e+00};
Point(259) = {0.00000000000000e+00, 4.00000000000000e+01, 2.50000000000000e+00, 4.00000000000000e+00};
Line(260) = {256, 257};
Line(261) = {257, 258};
Line(262) = {258, 259};
Line(263) = {259, 256};
Line(264) = {230, 256};
Line(265) = {231, 257};
Line(266) = {232, 258};
Line(267) = {233, 259};
Line Loop(268) = {260, 261, 262, 263};
Plane Surface(269) = {268};
Line Loop(270) = {-264, -260, 265, 234};
Plane Surface(271) = {270};
Line Loop(272) = {-265, -261, 266, 235};
Plane Surface(273) = {272};
Line Loop(274) = {-266, -262, 267, 236};
Plane Surface(275) = {274};
Line Loop(276) = {-267, -263, 264, 237};
Plane Surface(277) = {276};
Surface Loop(278) = {243, 269, 271, 273, 275, 277};
Volume(279) = {-278};
Physical Surface(280) = {269};
Physical Volume(281) = {279};
Point(282) = {0.00000000000000e+00, 0.00000000000000e+00, 4.00000000000000e+00, 4.00000000000000e+00};
Point(283) = {4.00000000000000e+01, 0.00000000000000e+00, 4.00000000000000e+00, 4.00000000000000e+00};
Point(284) = {4.00000000000000e+01, 4.00000000000000e+01, 4.00000000000000e+00, 4.00000000000000e+00};
Point(285) = {0.00000000000000e+00, 4.00000000000000e+01, 4.00000000000000e+00, 4.00000000000000e+00};
Line(286) = {282, 283};
Line(287) = {283, 284};
Line(288) = {284, 285};
Line(289) = {285, 282};
Line(290) = {256, 282};
Line(291) = {257, 283};
Line(292) = {258, 284};
Line(293) = {259, 285};
Line Loop(294) = {286, 287, 288, 289};
Plane Surface(295) = {294};
Line Loop(296) = {-290, -286, 291, 260};
Plane Surface(297) = {296};
Line Loop(298) = {-291, -287, 292, 261};
Plane Surface(299) = {298};
Line Loop(300) = {-292, -288, 293, 262};
Plane Surface(301) = {300};
Line Loop(302) = {-293, -289, 290, 263};
Plane Surface(303) = {302};
Surface Loop(304) = {269, 295, 297, 299, 301, 303};
Volume(305) = {-304};
Physical Surface(306) = {295};
Physical Volume(307) = {305};
