<?xml version="1.0" encoding="UTF-8" standalone="no"?>
<!-- Created with Inkscape (http://www.inkscape.org/) -->

<svg
   xmlns:dc="http://purl.org/dc/elements/1.1/"
   xmlns:cc="http://creativecommons.org/ns#"
   xmlns:rdf="http://www.w3.org/1999/02/22-rdf-syntax-ns#"
   xmlns:svg="http://www.w3.org/2000/svg"
   xmlns="http://www.w3.org/2000/svg"
   xmlns:xlink="http://www.w3.org/1999/xlink"
   xmlns:sodipodi="http://sodipodi.sourceforge.net/DTD/sodipodi-0.dtd"
   xmlns:inkscape="http://www.inkscape.org/namespaces/inkscape"
   width="518.60248"
   height="264.21161"
   id="svg2"
   version="1.1"
   inkscape:version="0.48.5 r10040"
   sodipodi:docname="New document 1">
  <defs
     id="defs4" />
  <sodipodi:namedview
     id="base"
     pagecolor="#ffffff"
     bordercolor="#666666"
     borderopacity="1.0"
     inkscape:pageopacity="0.0"
     inkscape:pageshadow="2"
     inkscape:zoom="1.9"
     inkscape:cx="281.64113"
     inkscape:cy="135.597"
     inkscape:document-units="px"
     inkscape:current-layer="layer1"
     showgrid="false"
     fit-margin-top="1"
     fit-margin-left="1"
     fit-margin-right="1"
     fit-margin-bottom="1"
     units="mm"
     inkscape:window-width="1920"
     inkscape:window-height="1033"
     inkscape:window-x="1920"
     inkscape:window-y="25"
     inkscape:window-maximized="1" />
  <metadata
     id="metadata7">
    <rdf:RDF>
      <cc:Work
         rdf:about="">
        <dc:format>image/svg+xml</dc:format>
        <dc:type
           rdf:resource="http://purl.org/dc/dcmitype/StillImage" />
        <dc:title></dc:title>
      </cc:Work>
    </rdf:RDF>
  </metadata>
  <g
     inkscape:label="Layer 1"
     inkscape:groupmode="layer"
     id="layer1"
     transform="translate(-45.565244,-335.38015)">
    <rect
       style="fill:none;stroke:#000000;stroke-width:2;stroke-miterlimit:4;stroke-opacity:1;stroke-dasharray:none;stroke-dashoffset:0"
       id="rect3777"
       width="47.592049"
       height="22.592047"
       x="66.545723"
       y="353.56659"
       inkscape:tile-cx="90.341747"
       inkscape:tile-cy="364.86261"
       inkscape:tile-w="47.592049"
       inkscape:tile-h="22.592047"
       inkscape:tile-x0="66.545723"
       inkscape:tile-y0="353.56659" />
    <use
       x="0"
       y="0"
       inkscape:tiled-clone-of="#rect3777"
       xlink:href="#rect3777"
       id="use5403"
       width="744.09448"
       height="1052.3622" />
    <use
       x="0"
       y="0"
       inkscape:tiled-clone-of="#rect3777"
       xlink:href="#rect3777"
       transform="translate(0,22.592047)"
       id="use5405"
       width="744.09448"
       height="1052.3622" />
    <use
       x="0"
       y="0"
       inkscape:tiled-clone-of="#rect3777"
       xlink:href="#rect3777"
       transform="translate(0,45.184093)"
       id="use5407"
       width="744.09448"
       height="1052.3622" />
    <use
       x="0"
       y="0"
       inkscape:tiled-clone-of="#rect3777"
       xlink:href="#rect3777"
       transform="translate(0,67.77614)"
       id="use5409"
       width="744.09448"
       height="1052.3622" />
    <use
       x="0"
       y="0"
       inkscape:tiled-clone-of="#rect3777"
       xlink:href="#rect3777"
       transform="translate(0,90.368187)"
       id="use5411"
       width="744.09448"
       height="1052.3622" />
    <use
       x="0"
       y="0"
       inkscape:tiled-clone-of="#rect3777"
       xlink:href="#rect3777"
       transform="translate(0,112.96023)"
       id="use5413"
       width="744.09448"
       height="1052.3622" />
    <use
       x="0"
       y="0"
       inkscape:tiled-clone-of="#rect3777"
       xlink:href="#rect3777"
       transform="translate(0,135.55228)"
       id="use5415"
       width="744.09448"
       height="1052.3622" />
    <use
       x="0"
       y="0"
       inkscape:tiled-clone-of="#rect3777"
       xlink:href="#rect3777"
       transform="translate(0,158.14433)"
       id="use5417"
       width="744.09448"
       height="1052.3622" />
    <use
       x="0"
       y="0"
       inkscape:tiled-clone-of="#rect3777"
       xlink:href="#rect3777"
       transform="translate(0,180.73637)"
       id="use5419"
       width="744.09448"
       height="1052.3622" />
    <use
       x="0"
       y="0"
       inkscape:tiled-clone-of="#rect3777"
       xlink:href="#rect3777"
       transform="translate(0,203.32842)"
       id="use5421"
       width="744.09448"
       height="1052.3622" />
    <use
       x="0"
       y="0"
       inkscape:tiled-clone-of="#rect3777"
       xlink:href="#rect3777"
       transform="translate(47.592049,0)"
       id="use5423"
       width="744.09448"
       height="1052.3622" />
    <use
       x="0"
       y="0"
       inkscape:tiled-clone-of="#rect3777"
       xlink:href="#rect3777"
       transform="translate(47.592049,22.592047)"
       id="use5425"
       width="744.09448"
       height="1052.3622" />
    <use
       x="0"
       y="0"
       inkscape:tiled-clone-of="#rect3777"
       xlink:href="#rect3777"
       transform="translate(47.592049,45.184093)"
       id="use5427"
       width="744.09448"
       height="1052.3622" />
    <use
       x="0"
       y="0"
       inkscape:tiled-clone-of="#rect3777"
       xlink:href="#rect3777"
       transform="translate(47.592049,67.77614)"
       id="use5429"
       width="744.09448"
       height="1052.3622" />
    <use
       x="0"
       y="0"
       inkscape:tiled-clone-of="#rect3777"
       xlink:href="#rect3777"
       transform="translate(47.592049,90.368187)"
       id="use5431"
       width="744.09448"
       height="1052.3622" />
    <use
       x="0"
       y="0"
       inkscape:tiled-clone-of="#rect3777"
       xlink:href="#rect3777"
       transform="translate(47.592049,112.96023)"
       id="use5433"
       width="744.09448"
       height="1052.3622" />
    <use
       x="0"
       y="0"
       inkscape:tiled-clone-of="#rect3777"
       xlink:href="#rect3777"
       transform="translate(47.592049,135.55228)"
       id="use5435"
       width="744.09448"
       height="1052.3622" />
    <use
       x="0"
       y="0"
       inkscape:tiled-clone-of="#rect3777"
       xlink:href="#rect3777"
       transform="translate(47.592049,158.14433)"
       id="use5437"
       width="744.09448"
       height="1052.3622" />
    <use
       x="0"
       y="0"
       inkscape:tiled-clone-of="#rect3777"
       xlink:href="#rect3777"
       transform="translate(47.592049,180.73637)"
       id="use5439"
       width="744.09448"
       height="1052.3622" />
    <use
       x="0"
       y="0"
       inkscape:tiled-clone-of="#rect3777"
       xlink:href="#rect3777"
       transform="translate(47.592049,203.32842)"
       id="use5441"
       width="744.09448"
       height="1052.3622" />
    <use
       x="0"
       y="0"
       inkscape:tiled-clone-of="#rect3777"
       xlink:href="#rect3777"
       transform="translate(95.184097,0)"
       id="use5443"
       width="744.09448"
       height="1052.3622" />
    <use
       x="0"
       y="0"
       inkscape:tiled-clone-of="#rect3777"
       xlink:href="#rect3777"
       transform="translate(95.184097,22.592047)"
       id="use5445"
       width="744.09448"
       height="1052.3622" />
    <use
       x="0"
       y="0"
       inkscape:tiled-clone-of="#rect3777"
       xlink:href="#rect3777"
       transform="translate(95.184097,45.184093)"
       id="use5447"
       width="744.09448"
       height="1052.3622" />
    <use
       x="0"
       y="0"
       inkscape:tiled-clone-of="#rect3777"
       xlink:href="#rect3777"
       transform="translate(95.184097,67.77614)"
       id="use5449"
       width="744.09448"
       height="1052.3622" />
    <use
       x="0"
       y="0"
       inkscape:tiled-clone-of="#rect3777"
       xlink:href="#rect3777"
       transform="translate(95.184097,90.368187)"
       id="use5451"
       width="744.09448"
       height="1052.3622" />
    <use
       x="0"
       y="0"
       inkscape:tiled-clone-of="#rect3777"
       xlink:href="#rect3777"
       transform="translate(95.184097,112.96023)"
       id="use5453"
       width="744.09448"
       height="1052.3622" />
    <use
       x="0"
       y="0"
       inkscape:tiled-clone-of="#rect3777"
       xlink:href="#rect3777"
       transform="translate(95.184097,135.55228)"
       id="use5455"
       width="744.09448"
       height="1052.3622" />
    <use
       x="0"
       y="0"
       inkscape:tiled-clone-of="#rect3777"
       xlink:href="#rect3777"
       transform="translate(95.184097,158.14433)"
       id="use5457"
       width="744.09448"
       height="1052.3622" />
    <use
       x="0"
       y="0"
       inkscape:tiled-clone-of="#rect3777"
       xlink:href="#rect3777"
       transform="translate(95.184097,180.73637)"
       id="use5459"
       width="744.09448"
       height="1052.3622" />
    <use
       x="0"
       y="0"
       inkscape:tiled-clone-of="#rect3777"
       xlink:href="#rect3777"
       transform="translate(95.184097,203.32842)"
       id="use5461"
       width="744.09448"
       height="1052.3622" />
    <use
       x="0"
       y="0"
       inkscape:tiled-clone-of="#rect3777"
       xlink:href="#rect3777"
       transform="translate(142.77615,0)"
       id="use5463"
       width="744.09448"
       height="1052.3622" />
    <use
       x="0"
       y="0"
       inkscape:tiled-clone-of="#rect3777"
       xlink:href="#rect3777"
       transform="translate(142.77615,22.592047)"
       id="use5465"
       width="744.09448"
       height="1052.3622" />
    <use
       x="0"
       y="0"
       inkscape:tiled-clone-of="#rect3777"
       xlink:href="#rect3777"
       transform="translate(142.77615,45.184093)"
       id="use5467"
       width="744.09448"
       height="1052.3622" />
    <use
       x="0"
       y="0"
       inkscape:tiled-clone-of="#rect3777"
       xlink:href="#rect3777"
       transform="translate(142.77615,67.77614)"
       id="use5469"
       width="744.09448"
       height="1052.3622" />
    <use
       x="0"
       y="0"
       inkscape:tiled-clone-of="#rect3777"
       xlink:href="#rect3777"
       transform="translate(142.77615,90.368187)"
       id="use5471"
       width="744.09448"
       height="1052.3622" />
    <use
       x="0"
       y="0"
       inkscape:tiled-clone-of="#rect3777"
       xlink:href="#rect3777"
       transform="translate(142.77615,112.96023)"
       id="use5473"
       width="744.09448"
       height="1052.3622" />
    <use
       x="0"
       y="0"
       inkscape:tiled-clone-of="#rect3777"
       xlink:href="#rect3777"
       transform="translate(142.77615,135.55228)"
       id="use5475"
       width="744.09448"
       height="1052.3622" />
    <use
       x="0"
       y="0"
       inkscape:tiled-clone-of="#rect3777"
       xlink:href="#rect3777"
       transform="translate(142.77615,158.14433)"
       id="use5477"
       width="744.09448"
       height="1052.3622" />
    <use
       x="0"
       y="0"
       inkscape:tiled-clone-of="#rect3777"
       xlink:href="#rect3777"
       transform="translate(142.77615,180.73637)"
       id="use5479"
       width="744.09448"
       height="1052.3622" />
    <use
       x="0"
       y="0"
       inkscape:tiled-clone-of="#rect3777"
       xlink:href="#rect3777"
       transform="translate(142.77615,203.32842)"
       id="use5481"
       width="744.09448"
       height="1052.3622" />
    <use
       x="0"
       y="0"
       inkscape:tiled-clone-of="#rect3777"
       xlink:href="#rect3777"
       transform="translate(190.36819,0)"
       id="use5483"
       width="744.09448"
       height="1052.3622" />
    <use
       x="0"
       y="0"
       inkscape:tiled-clone-of="#rect3777"
       xlink:href="#rect3777"
       transform="translate(190.36819,22.592047)"
       id="use5485"
       width="744.09448"
       height="1052.3622" />
    <use
       x="0"
       y="0"
       inkscape:tiled-clone-of="#rect3777"
       xlink:href="#rect3777"
       transform="translate(190.36819,45.184093)"
       id="use5487"
       width="744.09448"
       height="1052.3622" />
    <use
       x="0"
       y="0"
       inkscape:tiled-clone-of="#rect3777"
       xlink:href="#rect3777"
       transform="translate(190.36819,67.77614)"
       id="use5489"
       width="744.09448"
       height="1052.3622" />
    <use
       x="0"
       y="0"
       inkscape:tiled-clone-of="#rect3777"
       xlink:href="#rect3777"
       transform="translate(190.36819,90.368187)"
       id="use5491"
       width="744.09448"
       height="1052.3622" />
    <use
       x="0"
       y="0"
       inkscape:tiled-clone-of="#rect3777"
       xlink:href="#rect3777"
       transform="translate(190.36819,112.96023)"
       id="use5493"
       width="744.09448"
       height="1052.3622" />
    <use
       x="0"
       y="0"
       inkscape:tiled-clone-of="#rect3777"
       xlink:href="#rect3777"
       transform="translate(190.36819,135.55228)"
       id="use5495"
       width="744.09448"
       height="1052.3622" />
    <use
       x="0"
       y="0"
       inkscape:tiled-clone-of="#rect3777"
       xlink:href="#rect3777"
       transform="translate(190.36819,158.14433)"
       id="use5497"
       width="744.09448"
       height="1052.3622" />
    <use
       x="0"
       y="0"
       inkscape:tiled-clone-of="#rect3777"
       xlink:href="#rect3777"
       transform="translate(190.36819,180.73637)"
       id="use5499"
       width="744.09448"
       height="1052.3622" />
    <use
       x="0"
       y="0"
       inkscape:tiled-clone-of="#rect3777"
       xlink:href="#rect3777"
       transform="translate(190.36819,203.32842)"
       id="use5501"
       width="744.09448"
       height="1052.3622" />
    <use
       x="0"
       y="0"
       inkscape:tiled-clone-of="#rect3777"
       xlink:href="#rect3777"
       transform="translate(237.96024,0)"
       id="use5503"
       width="744.09448"
       height="1052.3622" />
    <use
       x="0"
       y="0"
       inkscape:tiled-clone-of="#rect3777"
       xlink:href="#rect3777"
       transform="translate(237.96024,22.592047)"
       id="use5505"
       width="744.09448"
       height="1052.3622" />
    <use
       x="0"
       y="0"
       inkscape:tiled-clone-of="#rect3777"
       xlink:href="#rect3777"
       transform="translate(237.96024,45.184093)"
       id="use5507"
       width="744.09448"
       height="1052.3622" />
    <use
       x="0"
       y="0"
       inkscape:tiled-clone-of="#rect3777"
       xlink:href="#rect3777"
       transform="translate(237.96024,67.77614)"
       id="use5509"
       width="744.09448"
       height="1052.3622" />
    <use
       x="0"
       y="0"
       inkscape:tiled-clone-of="#rect3777"
       xlink:href="#rect3777"
       transform="translate(237.96024,90.368187)"
       id="use5511"
       width="744.09448"
       height="1052.3622" />
    <use
       x="0"
       y="0"
       inkscape:tiled-clone-of="#rect3777"
       xlink:href="#rect3777"
       transform="translate(237.96024,112.96023)"
       id="use5513"
       width="744.09448"
       height="1052.3622" />
    <use
       x="0"
       y="0"
       inkscape:tiled-clone-of="#rect3777"
       xlink:href="#rect3777"
       transform="translate(237.96024,135.55228)"
       id="use5515"
       width="744.09448"
       height="1052.3622" />
    <use
       x="0"
       y="0"
       inkscape:tiled-clone-of="#rect3777"
       xlink:href="#rect3777"
       transform="translate(237.96024,158.14433)"
       id="use5517"
       width="744.09448"
       height="1052.3622" />
    <use
       x="0"
       y="0"
       inkscape:tiled-clone-of="#rect3777"
       xlink:href="#rect3777"
       transform="translate(237.96024,180.73637)"
       id="use5519"
       width="744.09448"
       height="1052.3622" />
    <use
       x="0"
       y="0"
       inkscape:tiled-clone-of="#rect3777"
       xlink:href="#rect3777"
       transform="translate(237.96024,203.32842)"
       id="use5521"
       width="744.09448"
       height="1052.3622" />
    <use
       x="0"
       y="0"
       inkscape:tiled-clone-of="#rect3777"
       xlink:href="#rect3777"
       transform="translate(285.55229,0)"
       id="use5523"
       width="744.09448"
       height="1052.3622" />
    <use
       x="0"
       y="0"
       inkscape:tiled-clone-of="#rect3777"
       xlink:href="#rect3777"
       transform="translate(285.55229,22.592047)"
       id="use5525"
       width="744.09448"
       height="1052.3622" />
    <use
       x="0"
       y="0"
       inkscape:tiled-clone-of="#rect3777"
       xlink:href="#rect3777"
       transform="translate(285.55229,45.184093)"
       id="use5527"
       width="744.09448"
       height="1052.3622" />
    <use
       x="0"
       y="0"
       inkscape:tiled-clone-of="#rect3777"
       xlink:href="#rect3777"
       transform="translate(285.55229,67.77614)"
       id="use5529"
       width="744.09448"
       height="1052.3622" />
    <use
       x="0"
       y="0"
       inkscape:tiled-clone-of="#rect3777"
       xlink:href="#rect3777"
       transform="translate(285.55229,90.368187)"
       id="use5531"
       width="744.09448"
       height="1052.3622" />
    <use
       x="0"
       y="0"
       inkscape:tiled-clone-of="#rect3777"
       xlink:href="#rect3777"
       transform="translate(285.55229,112.96023)"
       id="use5533"
       width="744.09448"
       height="1052.3622" />
    <use
       x="0"
       y="0"
       inkscape:tiled-clone-of="#rect3777"
       xlink:href="#rect3777"
       transform="translate(285.55229,135.55228)"
       id="use5535"
       width="744.09448"
       height="1052.3622" />
    <use
       x="0"
       y="0"
       inkscape:tiled-clone-of="#rect3777"
       xlink:href="#rect3777"
       transform="translate(285.55229,158.14433)"
       id="use5537"
       width="744.09448"
       height="1052.3622" />
    <use
       x="0"
       y="0"
       inkscape:tiled-clone-of="#rect3777"
       xlink:href="#rect3777"
       transform="translate(285.55229,180.73637)"
       id="use5539"
       width="744.09448"
       height="1052.3622" />
    <use
       x="0"
       y="0"
       inkscape:tiled-clone-of="#rect3777"
       xlink:href="#rect3777"
       transform="translate(285.55229,203.32842)"
       id="use5541"
       width="744.09448"
       height="1052.3622" />
    <use
       x="0"
       y="0"
       inkscape:tiled-clone-of="#rect3777"
       xlink:href="#rect3777"
       transform="translate(333.14434,0)"
       id="use5543"
       width="744.09448"
       height="1052.3622" />
    <use
       x="0"
       y="0"
       inkscape:tiled-clone-of="#rect3777"
       xlink:href="#rect3777"
       transform="translate(333.14434,22.592047)"
       id="use5545"
       width="744.09448"
       height="1052.3622" />
    <use
       x="0"
       y="0"
       inkscape:tiled-clone-of="#rect3777"
       xlink:href="#rect3777"
       transform="translate(333.14434,45.184093)"
       id="use5547"
       width="744.09448"
       height="1052.3622" />
    <use
       x="0"
       y="0"
       inkscape:tiled-clone-of="#rect3777"
       xlink:href="#rect3777"
       transform="translate(333.14434,67.77614)"
       id="use5549"
       width="744.09448"
       height="1052.3622" />
    <use
       x="0"
       y="0"
       inkscape:tiled-clone-of="#rect3777"
       xlink:href="#rect3777"
       transform="translate(333.14434,90.368187)"
       id="use5551"
       width="744.09448"
       height="1052.3622" />
    <use
       x="0"
       y="0"
       inkscape:tiled-clone-of="#rect3777"
       xlink:href="#rect3777"
       transform="translate(333.14434,112.96023)"
       id="use5553"
       width="744.09448"
       height="1052.3622" />
    <use
       x="0"
       y="0"
       inkscape:tiled-clone-of="#rect3777"
       xlink:href="#rect3777"
       transform="translate(333.14434,135.55228)"
       id="use5555"
       width="744.09448"
       height="1052.3622" />
    <use
       x="0"
       y="0"
       inkscape:tiled-clone-of="#rect3777"
       xlink:href="#rect3777"
       transform="translate(333.14434,158.14433)"
       id="use5557"
       width="744.09448"
       height="1052.3622" />
    <use
       x="0"
       y="0"
       inkscape:tiled-clone-of="#rect3777"
       xlink:href="#rect3777"
       transform="translate(333.14434,180.73637)"
       id="use5559"
       width="744.09448"
       height="1052.3622" />
    <use
       x="0"
       y="0"
       inkscape:tiled-clone-of="#rect3777"
       xlink:href="#rect3777"
       transform="translate(333.14434,203.32842)"
       id="use5561"
       width="744.09448"
       height="1052.3622" />
    <use
       x="0"
       y="0"
       inkscape:tiled-clone-of="#rect3777"
       xlink:href="#rect3777"
       transform="translate(380.73639,0)"
       id="use5563"
       width="744.09448"
       height="1052.3622" />
    <use
       x="0"
       y="0"
       inkscape:tiled-clone-of="#rect3777"
       xlink:href="#rect3777"
       transform="translate(380.73639,22.592047)"
       id="use5565"
       width="744.09448"
       height="1052.3622" />
    <use
       x="0"
       y="0"
       inkscape:tiled-clone-of="#rect3777"
       xlink:href="#rect3777"
       transform="translate(380.73639,45.184093)"
       id="use5567"
       width="744.09448"
       height="1052.3622" />
    <use
       x="0"
       y="0"
       inkscape:tiled-clone-of="#rect3777"
       xlink:href="#rect3777"
       transform="translate(380.73639,67.77614)"
       id="use5569"
       width="744.09448"
       height="1052.3622" />
    <use
       x="0"
       y="0"
       inkscape:tiled-clone-of="#rect3777"
       xlink:href="#rect3777"
       transform="translate(380.73639,90.368187)"
       id="use5571"
       width="744.09448"
       height="1052.3622" />
    <use
       x="0"
       y="0"
       inkscape:tiled-clone-of="#rect3777"
       xlink:href="#rect3777"
       transform="translate(380.73639,112.96023)"
       id="use5573"
       width="744.09448"
       height="1052.3622" />
    <use
       x="0"
       y="0"
       inkscape:tiled-clone-of="#rect3777"
       xlink:href="#rect3777"
       transform="translate(380.73639,135.55228)"
       id="use5575"
       width="744.09448"
       height="1052.3622" />
    <use
       x="0"
       y="0"
       inkscape:tiled-clone-of="#rect3777"
       xlink:href="#rect3777"
       transform="translate(380.73639,158.14433)"
       id="use5577"
       width="744.09448"
       height="1052.3622" />
    <use
       x="0"
       y="0"
       inkscape:tiled-clone-of="#rect3777"
       xlink:href="#rect3777"
       transform="translate(380.73639,180.73637)"
       id="use5579"
       width="744.09448"
       height="1052.3622" />
    <use
       x="0"
       y="0"
       inkscape:tiled-clone-of="#rect3777"
       xlink:href="#rect3777"
       transform="translate(380.73639,203.32842)"
       id="use5581"
       width="744.09448"
       height="1052.3622" />
    <use
       x="0"
       y="0"
       inkscape:tiled-clone-of="#rect3777"
       xlink:href="#rect3777"
       transform="translate(428.32844,0)"
       id="use5583"
       width="744.09448"
       height="1052.3622" />
    <use
       x="0"
       y="0"
       inkscape:tiled-clone-of="#rect3777"
       xlink:href="#rect3777"
       transform="translate(428.32844,22.592047)"
       id="use5585"
       width="744.09448"
       height="1052.3622" />
    <use
       x="0"
       y="0"
       inkscape:tiled-clone-of="#rect3777"
       xlink:href="#rect3777"
       transform="translate(428.32844,45.184093)"
       id="use5587"
       width="744.09448"
       height="1052.3622" />
    <use
       x="0"
       y="0"
       inkscape:tiled-clone-of="#rect3777"
       xlink:href="#rect3777"
       transform="translate(428.32844,67.77614)"
       id="use5589"
       width="744.09448"
       height="1052.3622" />
    <use
       x="0"
       y="0"
       inkscape:tiled-clone-of="#rect3777"
       xlink:href="#rect3777"
       transform="translate(428.32844,90.368187)"
       id="use5591"
       width="744.09448"
       height="1052.3622" />
    <use
       x="0"
       y="0"
       inkscape:tiled-clone-of="#rect3777"
       xlink:href="#rect3777"
       transform="translate(428.32844,112.96023)"
       id="use5593"
       width="744.09448"
       height="1052.3622" />
    <use
       x="0"
       y="0"
       inkscape:tiled-clone-of="#rect3777"
       xlink:href="#rect3777"
       transform="translate(428.32844,135.55228)"
       id="use5595"
       width="744.09448"
       height="1052.3622" />
    <use
       x="0"
       y="0"
       inkscape:tiled-clone-of="#rect3777"
       xlink:href="#rect3777"
       transform="translate(428.32844,158.14433)"
       id="use5597"
       width="744.09448"
       height="1052.3622" />
    <use
       x="0"
       y="0"
       inkscape:tiled-clone-of="#rect3777"
       xlink:href="#rect3777"
       transform="translate(428.32844,180.73637)"
       id="use5599"
       width="744.09448"
       height="1052.3622" />
    <use
       x="0"
       y="0"
       inkscape:tiled-clone-of="#rect3777"
       xlink:href="#rect3777"
       transform="translate(428.32844,203.32842)"
       id="use5601"
       width="744.09448"
       height="1052.3622" />
    <g
       id="g5823"
       inkscape:tile-cx="66.55"
       inkscape:tile-cy="466.46218"
       inkscape:tile-w="3.6764982"
       inkscape:tile-h="229.6765"
       inkscape:tile-x0="64.711751"
       inkscape:tile-y0="351.62393">
      <path
         transform="matrix(1.3235018,0,0,1.3235018,39.192529,-98.265687)"
         d="m 22.059449,341.31262 c 0,0.76709 -0.621844,1.38893 -1.388928,1.38893 -0.767084,0 -1.388929,-0.62184 -1.388929,-1.38893 0,-0.76708 0.621845,-1.38893 1.388929,-1.38893 0.767084,0 1.388928,0.62185 1.388928,1.38893 z"
         sodipodi:ry="1.3889283"
         sodipodi:rx="1.3889283"
         sodipodi:cy="341.31262"
         sodipodi:cx="20.670521"
         id="path3981"
         style="fill:#000000;fill-opacity:1;stroke:#000000;stroke-width:1;stroke-miterlimit:4;stroke-opacity:1;stroke-dasharray:none;stroke-dashoffset:0"
         sodipodi:type="arc" />
      <path
         sodipodi:type="arc"
         style="fill:#000000;fill-opacity:1;stroke:#000000;stroke-width:1;stroke-miterlimit:4;stroke-opacity:1;stroke-dasharray:none;stroke-dashoffset:0"
         id="path5803"
         sodipodi:cx="20.670521"
         sodipodi:cy="341.31262"
         sodipodi:rx="1.3889283"
         sodipodi:ry="1.3889283"
         d="m 22.059449,341.31262 c 0,0.76709 -0.621844,1.38893 -1.388928,1.38893 -0.767084,0 -1.388929,-0.62184 -1.388929,-1.38893 0,-0.76708 0.621845,-1.38893 1.388929,-1.38893 0.767084,0 1.388928,0.62185 1.388928,1.38893 z"
         transform="matrix(1.3235018,0,0,1.3235018,39.192529,-75.565687)" />
      <path
         sodipodi:type="arc"
         style="fill:#000000;fill-opacity:1;stroke:#000000;stroke-width:1;stroke-miterlimit:4;stroke-opacity:1;stroke-dasharray:none;stroke-dashoffset:0"
         id="path5805"
         sodipodi:cx="20.670521"
         sodipodi:cy="341.31262"
         sodipodi:rx="1.3889283"
         sodipodi:ry="1.3889283"
         d="m 22.059449,341.31262 c 0,0.76709 -0.621844,1.38893 -1.388928,1.38893 -0.767084,0 -1.388929,-0.62184 -1.388929,-1.38893 0,-0.76708 0.621845,-1.38893 1.388929,-1.38893 0.767084,0 1.388928,0.62185 1.388928,1.38893 z"
         transform="matrix(1.3235018,0,0,1.3235018,39.192529,-53.065687)" />
      <path
         transform="matrix(1.3235018,0,0,1.3235018,39.192529,-30.365687)"
         d="m 22.059449,341.31262 c 0,0.76709 -0.621844,1.38893 -1.388928,1.38893 -0.767084,0 -1.388929,-0.62184 -1.388929,-1.38893 0,-0.76708 0.621845,-1.38893 1.388929,-1.38893 0.767084,0 1.388928,0.62185 1.388928,1.38893 z"
         sodipodi:ry="1.3889283"
         sodipodi:rx="1.3889283"
         sodipodi:cy="341.31262"
         sodipodi:cx="20.670521"
         id="path5807"
         style="fill:#000000;fill-opacity:1;stroke:#000000;stroke-width:1;stroke-miterlimit:4;stroke-opacity:1;stroke-dasharray:none;stroke-dashoffset:0"
         sodipodi:type="arc" />
      <path
         sodipodi:type="arc"
         style="fill:#000000;fill-opacity:1;stroke:#000000;stroke-width:1;stroke-miterlimit:4;stroke-opacity:1;stroke-dasharray:none;stroke-dashoffset:0"
         id="path5809"
         sodipodi:cx="20.670521"
         sodipodi:cy="341.31262"
         sodipodi:rx="1.3889283"
         sodipodi:ry="1.3889283"
         d="m 22.059449,341.31262 c 0,0.76709 -0.621844,1.38893 -1.388928,1.38893 -0.767084,0 -1.388929,-0.62184 -1.388929,-1.38893 0,-0.76708 0.621845,-1.38893 1.388929,-1.38893 0.767084,0 1.388928,0.62185 1.388928,1.38893 z"
         transform="matrix(1.3235018,0,0,1.3235018,39.192529,-7.7656873)" />
      <path
         transform="matrix(1.3235018,0,0,1.3235018,39.192529,14.934313)"
         d="m 22.059449,341.31262 c 0,0.76709 -0.621844,1.38893 -1.388928,1.38893 -0.767084,0 -1.388929,-0.62184 -1.388929,-1.38893 0,-0.76708 0.621845,-1.38893 1.388929,-1.38893 0.767084,0 1.388928,0.62185 1.388928,1.38893 z"
         sodipodi:ry="1.3889283"
         sodipodi:rx="1.3889283"
         sodipodi:cy="341.31262"
         sodipodi:cx="20.670521"
         id="path5811"
         style="fill:#000000;fill-opacity:1;stroke:#000000;stroke-width:1;stroke-miterlimit:4;stroke-opacity:1;stroke-dasharray:none;stroke-dashoffset:0"
         sodipodi:type="arc" />
      <path
         transform="matrix(1.3235018,0,0,1.3235018,39.192529,37.434313)"
         d="m 22.059449,341.31262 c 0,0.76709 -0.621844,1.38893 -1.388928,1.38893 -0.767084,0 -1.388929,-0.62184 -1.388929,-1.38893 0,-0.76708 0.621845,-1.38893 1.388929,-1.38893 0.767084,0 1.388928,0.62185 1.388928,1.38893 z"
         sodipodi:ry="1.3889283"
         sodipodi:rx="1.3889283"
         sodipodi:cy="341.31262"
         sodipodi:cx="20.670521"
         id="path5813"
         style="fill:#000000;fill-opacity:1;stroke:#000000;stroke-width:1;stroke-miterlimit:4;stroke-opacity:1;stroke-dasharray:none;stroke-dashoffset:0"
         sodipodi:type="arc" />
      <path
         sodipodi:type="arc"
         style="fill:#000000;fill-opacity:1;stroke:#000000;stroke-width:1;stroke-miterlimit:4;stroke-opacity:1;stroke-dasharray:none;stroke-dashoffset:0"
         id="path5815"
         sodipodi:cx="20.670521"
         sodipodi:cy="341.31262"
         sodipodi:rx="1.3889283"
         sodipodi:ry="1.3889283"
         d="m 22.059449,341.31262 c 0,0.76709 -0.621844,1.38893 -1.388928,1.38893 -0.767084,0 -1.388929,-0.62184 -1.388929,-1.38893 0,-0.76708 0.621845,-1.38893 1.388929,-1.38893 0.767084,0 1.388928,0.62185 1.388928,1.38893 z"
         transform="matrix(1.3235018,0,0,1.3235018,39.192529,60.134313)" />
      <path
         sodipodi:type="arc"
         style="fill:#000000;fill-opacity:1;stroke:#000000;stroke-width:1;stroke-miterlimit:4;stroke-opacity:1;stroke-dasharray:none;stroke-dashoffset:0"
         id="path5817"
         sodipodi:cx="20.670521"
         sodipodi:cy="341.31262"
         sodipodi:rx="1.3889283"
         sodipodi:ry="1.3889283"
         d="m 22.059449,341.31262 c 0,0.76709 -0.621844,1.38893 -1.388928,1.38893 -0.767084,0 -1.388929,-0.62184 -1.388929,-1.38893 0,-0.76708 0.621845,-1.38893 1.388929,-1.38893 0.767084,0 1.388928,0.62185 1.388928,1.38893 z"
         transform="matrix(1.3235018,0,0,1.3235018,39.192529,82.534325)" />
      <path
         sodipodi:type="arc"
         style="fill:#000000;fill-opacity:1;stroke:#000000;stroke-width:1;stroke-miterlimit:4;stroke-opacity:1;stroke-dasharray:none;stroke-dashoffset:0"
         id="path5819"
         sodipodi:cx="20.670521"
         sodipodi:cy="341.31262"
         sodipodi:rx="1.3889283"
         sodipodi:ry="1.3889283"
         d="m 22.059449,341.31262 c 0,0.76709 -0.621844,1.38893 -1.388928,1.38893 -0.767084,0 -1.388929,-0.62184 -1.388929,-1.38893 0,-0.76708 0.621845,-1.38893 1.388929,-1.38893 0.767084,0 1.388928,0.62185 1.388928,1.38893 z"
         transform="matrix(1.3235018,0,0,1.3235018,39.192529,105.03431)" />
      <path
         transform="matrix(1.3235018,0,0,1.3235018,39.192529,127.73431)"
         d="m 22.059449,341.31262 c 0,0.76709 -0.621844,1.38893 -1.388928,1.38893 -0.767084,0 -1.388929,-0.62184 -1.388929,-1.38893 0,-0.76708 0.621845,-1.38893 1.388929,-1.38893 0.767084,0 1.388928,0.62185 1.388928,1.38893 z"
         sodipodi:ry="1.3889283"
         sodipodi:rx="1.3889283"
         sodipodi:cy="341.31262"
         sodipodi:cx="20.670521"
         id="path5821"
         style="fill:#000000;fill-opacity:1;stroke:#000000;stroke-width:1;stroke-miterlimit:4;stroke-opacity:1;stroke-dasharray:none;stroke-dashoffset:0"
         sodipodi:type="arc" />
    </g>
    <use
       x="0"
       y="0"
       inkscape:tiled-clone-of="#g5823"
       xlink:href="#g5823"
       id="use6156"
       width="744.09448"
       height="1052.3622" />
    <use
       x="0"
       y="0"
       inkscape:tiled-clone-of="#g5823"
       xlink:href="#g5823"
       transform="translate(47.610652,0)"
       id="use6158"
       width="744.09448"
       height="1052.3622" />
    <use
       x="0"
       y="0"
       inkscape:tiled-clone-of="#g5823"
       xlink:href="#g5823"
       transform="translate(95.221303,0)"
       id="use6160"
       width="744.09448"
       height="1052.3622" />
    <use
       x="0"
       y="0"
       inkscape:tiled-clone-of="#g5823"
       xlink:href="#g5823"
       transform="translate(142.83195,0)"
       id="use6162"
       width="744.09448"
       height="1052.3622" />
    <use
       x="0"
       y="0"
       inkscape:tiled-clone-of="#g5823"
       xlink:href="#g5823"
       transform="translate(190.44261,0)"
       id="use6164"
       width="744.09448"
       height="1052.3622" />
    <use
       x="0"
       y="0"
       inkscape:tiled-clone-of="#g5823"
       xlink:href="#g5823"
       transform="translate(238.05326,0)"
       id="use6166"
       width="744.09448"
       height="1052.3622" />
    <use
       x="0"
       y="0"
       inkscape:tiled-clone-of="#g5823"
       xlink:href="#g5823"
       transform="translate(285.66391,0)"
       id="use6168"
       width="744.09448"
       height="1052.3622" />
    <use
       x="0"
       y="0"
       inkscape:tiled-clone-of="#g5823"
       xlink:href="#g5823"
       transform="translate(333.27456,0)"
       id="use6170"
       width="744.09448"
       height="1052.3622" />
    <use
       x="0"
       y="0"
       inkscape:tiled-clone-of="#g5823"
       xlink:href="#g5823"
       transform="translate(380.88521,0)"
       id="use6172"
       width="744.09448"
       height="1052.3622" />
    <use
       x="0"
       y="0"
       inkscape:tiled-clone-of="#g5823"
       xlink:href="#g5823"
       transform="translate(428.49586,0)"
       id="use6174"
       width="744.09448"
       height="1052.3622" />
    <use
       x="0"
       y="0"
       inkscape:tiled-clone-of="#g5823"
       xlink:href="#g5823"
       transform="translate(476.10652,0)"
       id="use6176"
       width="744.09448"
       height="1052.3622" />
    <text
       xml:space="preserve"
       style="font-size:40px;font-style:normal;font-variant:normal;font-weight:normal;font-stretch:normal;line-height:125%;letter-spacing:0px;word-spacing:0px;fill:#000000;fill-opacity:1;stroke:none;font-family:Harrington;-inkscape-font-specification:Harrington"
       x="48.421051"
       y="594.99377"
       id="text6178"
       sodipodi:linespacing="125%"><tspan
         sodipodi:role="line"
         id="tspan6180"
         x="48.421051"
         y="594.99377"
         style="font-size:8px;font-style:normal;font-variant:normal;font-weight:normal;font-stretch:normal;font-family:Sans;-inkscape-font-specification:Sans">(5.5, 9.0)</tspan></text>
    <text
       sodipodi:linespacing="125%"
       id="text6182"
       y="344.99377"
       x="514.3158"
       style="font-size:40px;font-style:normal;font-variant:normal;font-weight:normal;font-stretch:normal;line-height:125%;letter-spacing:0px;word-spacing:0px;fill:#000000;fill-opacity:1;stroke:none;font-family:Harrington;-inkscape-font-specification:Harrington"
       xml:space="preserve"><tspan
         style="font-size:8px;font-style:normal;font-variant:normal;font-weight:normal;font-stretch:normal;font-family:Sans;-inkscape-font-specification:Sans"
         y="344.99377"
         x="514.3158"
         id="tspan6184"
         sodipodi:role="line">(15.5, 14.0)</tspan></text>
  </g>
</svg>
