<?xml version="1.0" encoding="UTF-8" standalone="no"?>
<svg
   xmlns:latexdraw="http://latexdraw.sourceforge.net/namespaces/latexdraw"
   xmlns:dc="http://purl.org/dc/elements/1.1/"
   xmlns:cc="http://creativecommons.org/ns#"
   xmlns:rdf="http://www.w3.org/1999/02/22-rdf-syntax-ns#"
   xmlns:svg="http://www.w3.org/2000/svg"
   xmlns="http://www.w3.org/2000/svg"
   xmlns:sodipodi="http://sodipodi.sourceforge.net/DTD/sodipodi-0.dtd"
   xmlns:inkscape="http://www.inkscape.org/namespaces/inkscape"
   version="1.1"
   id="svg2"
   inkscape:version="0.48.3.1 r9886"
   width="774.17419"
   height="487.19666"
   sodipodi:docname="dom2DFEM.svg">
  <sodipodi:namedview
     pagecolor="#ffffff"
     bordercolor="#666666"
     borderopacity="1"
     objecttolerance="10"
     gridtolerance="10"
     guidetolerance="10"
     inkscape:pageopacity="0"
     inkscape:pageshadow="2"
     inkscape:window-width="1216"
     inkscape:window-height="904"
     id="namedview73"
     showgrid="false"
     units="mm"
     fit-margin-top="2"
     fit-margin-left="2"
     fit-margin-right="2"
     fit-margin-bottom="2"
     inkscape:zoom="1.1"
     inkscape:cx="332.07109"
     inkscape:cy="246.49339"
     inkscape:window-x="0"
     inkscape:window-y="23"
     inkscape:window-maximized="0"
     inkscape:current-layer="svg2" />
  <defs
     id="defs4">
    <linearGradient
       id="linearGradient1572"
       x1="421.12317"
       y1="558.4696"
       x2="494.87683"
       y2="160.53038"
       gradientUnits="userSpaceOnUse">
      <stop
         offset="0"
         stop-color="#e93b3b"
         id="stop7" />
      <stop
         offset="0.49"
         stop-color="#00ff5f"
         id="stop9" />
      <stop
         offset="1"
         stop-color="#e93b3b"
         id="stop11" />
    </linearGradient>
    <marker
       overflow="visible"
       orient="auto"
       id="arrow1-1580"
       style="overflow:visible">
      <path
         d="M 0,0 4.6520833,1.6614583 2.79125,0 4.6520833,-1.6614583 z"
         latexdraw:arrSizeNum="2.0"
         id="path14"
         inkscape:connector-curvature="0"
         style="fill:#000000" />
    </marker>
    <marker
       overflow="visible"
       orient="auto"
       id="arrow2-1580"
       style="overflow:visible">
      <path
         d="M 0,0 -4.6520833,1.6614583 -2.79125,0 -4.6520833,-1.6614583 z"
         latexdraw:arrSizeNum="2.0"
         id="path17"
         inkscape:connector-curvature="0"
         style="fill:#000000" />
    </marker>
    <pattern
       latexdraw:type="crosshatch"
       latexdraw:rotationAngle="0.0"
       latexdraw:size="14.0"
       patternUnits="userSpaceOnUse"
       id="pattern1581"
       x="0"
       y="0"
       width="751"
       height="511">
      <g
         stroke="black"
         stroke-width="1.0"
         stroke-dasharray="none"
         id="g20">
        <path
           d="M 166.0 90.0 L 166.0 511.0 M 181.0 90.0 L 181.0 511.0 M 196.0 90.0 L 196.0 511.0 M 211.0 90.0 L 211.0 511.0 M 226.0 90.0 L 226.0 511.0 M 241.0 90.0 L 241.0 511.0 M 256.0 90.0 L 256.0 511.0 M 271.0 90.0 L 271.0 511.0 M 286.0 90.0 L 286.0 511.0 M 301.0 90.0 L 301.0 511.0 M 316.0 90.0 L 316.0 511.0 M 331.0 90.0 L 331.0 511.0 M 346.0 90.0 L 346.0 511.0 M 361.0 90.0 L 361.0 511.0 M 376.0 90.0 L 376.0 511.0 M 391.0 90.0 L 391.0 511.0 M 406.0 90.0 L 406.0 511.0 M 421.0 90.0 L 421.0 511.0 M 436.0 90.0 L 436.0 511.0 M 451.0 90.0 L 451.0 511.0 M 466.0 90.0 L 466.0 511.0 M 481.0 90.0 L 481.0 511.0 M 496.0 90.0 L 496.0 511.0 M 511.0 90.0 L 511.0 511.0 M 526.0 90.0 L 526.0 511.0 M 541.0 90.0 L 541.0 511.0 M 556.0 90.0 L 556.0 511.0 M 571.0 90.0 L 571.0 511.0 M 586.0 90.0 L 586.0 511.0 M 601.0 90.0 L 601.0 511.0 M 616.0 90.0 L 616.0 511.0 M 631.0 90.0 L 631.0 511.0 M 646.0 90.0 L 646.0 511.0 M 661.0 90.0 L 661.0 511.0 M 676.0 90.0 L 676.0 511.0 M 691.0 90.0 L 691.0 511.0 M 706.0 90.0 L 706.0 511.0 M 721.0 90.0 L 721.0 511.0 M 736.0 90.0 L 736.0 511.0 M 166.0 90.0 L 751.0 90.0 M 166.0 105.0 L 751.0 105.0 M 166.0 120.0 L 751.0 120.0 M 166.0 135.0 L 751.0 135.0 M 166.0 150.0 L 751.0 150.0 M 166.0 165.0 L 751.0 165.0 M 166.0 180.0 L 751.0 180.0 M 166.0 195.0 L 751.0 195.0 M 166.0 210.0 L 751.0 210.0 M 166.0 225.0 L 751.0 225.0 M 166.0 240.0 L 751.0 240.0 M 166.0 255.0 L 751.0 255.0 M 166.0 270.0 L 751.0 270.0 M 166.0 285.0 L 751.0 285.0 M 166.0 300.0 L 751.0 300.0 M 166.0 315.0 L 751.0 315.0 M 166.0 330.0 L 751.0 330.0 M 166.0 345.0 L 751.0 345.0 M 166.0 360.0 L 751.0 360.0 M 166.0 375.0 L 751.0 375.0 M 166.0 390.0 L 751.0 390.0 M 166.0 405.0 L 751.0 405.0 M 166.0 420.0 L 751.0 420.0 M 166.0 435.0 L 751.0 435.0 M 166.0 450.0 L 751.0 450.0 M 166.0 465.0 L 751.0 465.0 M 166.0 480.0 L 751.0 480.0 M 166.0 495.0 L 751.0 495.0 M 166.0 510.0 L 751.0 510.0 "
           id="path22" />
      </g>
    </pattern>
  </defs>
  <g
     id="id1572"
     latexdraw:type="rectangle"
     transform="translate(-132.55596,-58.637995)"
     style="stroke:none">
    <rect
       style="fill:url(#linearGradient1572);stroke:none;stroke-width:2"
       id="rect27"
       latexdraw:borderPos="outer"
       height="301"
       width="584"
       y="209"
       x="166" />
  </g>
  <g
     id="id1573"
     latexdraw:type="rectangle"
     transform="translate(-132.55596,-58.637995)">
    <rect
       style="fill:#9cbcdb;stroke:#000000;stroke-width:0.1"
       id="rect30"
       latexdraw:borderPos="outer"
       height="120.9"
       width="583.90002"
       y="90.050003"
       x="167.05" />
  </g>
  <g
     id="id1574"
     latexdraw:type="line"
     transform="translate(-132.55596,-58.637995)">
    <line
       style="stroke:#e8851f;stroke-width:16.20000076"
       id="line33"
       latexdraw:rotationAngle="0.0"
       y2="142"
       y1="143"
       x2="631"
       x1="301" />
  </g>
  <g
     style="font-size:22px;fill:#000000;font-family:Times New Roman"
     latexdraw:x="374.0"
     font-size="22"
     id="id1575"
     latexdraw:type="text"
     transform="translate(-132.55596,-60.637995)">
    <text
       id="text36"
       y="166"
       x="374">data for vertical gravity</text>
  </g>
  <g
     id="id1578"
     latexdraw:type="line"
     transform="translate(-132.55596,-56.637995)">
    <line
       style="stroke:#000000;stroke-width:2;stroke-dasharray:8, 8"
       id="line39"
       latexdraw:rotationAngle="0.0"
       y2="516"
       y1="79"
       x2="301"
       x1="301" />
  </g>
  <g
     id="id1579"
     latexdraw:type="line"
     transform="translate(-132.55596,-56.637995)">
    <line
       style="stroke:#000000;stroke-width:2;stroke-dasharray:8, 8"
       id="line42"
       latexdraw:rotationAngle="0.0"
       y2="514"
       y1="79"
       x2="631"
       x1="631" />
  </g>
  <g
     id="id1580"
     latexdraw:type="line"
     transform="translate(-132.55596,-58.637995)">
    <line
       style="stroke:#000000;stroke-width:2;marker-start:url(#arrow1-1580);marker-end:url(#arrow2-1580)"
       id="line45"
       latexdraw:rotationAngle="0.0"
       y2="90"
       y1="513"
       x2="801"
       x1="802" />
  </g>
  <g
     style="font-size:22px;fill:#000000;font-family:Times New Roman"
     latexdraw:x="810.0"
     font-size="22"
     id="id1584"
     latexdraw:type="text"
     transform="translate(-132.55596,-58.637995)">
    <text
       id="text57"
       y="285"
       x="810">num_cells</text>
  </g>
  <g
     style="font-size:22px;fill:#000000;font-family:Times New Roman"
     latexdraw:x="414.0"
     font-size="22"
     id="id1587"
     latexdraw:type="text"
     transform="translate(-132.55596,-58.637995)">
    <text
       id="text60"
       y="81"
       x="414">zero lateral gravity</text>
  </g>
  <g
     style="font-size:22px;fill:#000000;font-family:Times New Roman"
     transform="matrix(0,1,-1,0,316.83466,91.440125)"
     latexdraw:x="67.0"
     font-size="22"
     id="id1590"
     latexdraw:type="text">
    <text
       id="text63"
       y="305"
       x="67">zero lateral gravity</text>
  </g>
  <g
     style="font-size:22px;fill:#000000;font-family:Times New Roman"
     latexdraw:x="363.0"
     font-size="22"
     id="id1593"
     latexdraw:type="text"
     transform="translate(-132.55596,-58.637995)">
    <text
       id="text66"
       y="534"
       x="363">zero lateral gravity</text>
  </g>
  <g
     style="font-size:22px;fill:#000000;font-family:Times New Roman"
     transform="matrix(0,-1,1,0,337.36592,1002.7526)"
     latexdraw:x="683.0"
     font-size="22"
     id="id1596"
     latexdraw:type="text">
    <text
       id="text69"
       y="301"
       x="683">zero lateral gravity</text>
  </g>
  <metadata
     id="metadata71">
    <latexdraw:metadata>
      <latexdraw:displayBorders>true</latexdraw:displayBorders>
      <latexdraw:autoAdjust>true</latexdraw:autoAdjust>
      <latexdraw:ppc>50</latexdraw:ppc>
      <latexdraw:zoom>1.25</latexdraw:zoom>
      <latexdraw:unit>cm</latexdraw:unit>
      <latexdraw:classicGrid>false</latexdraw:classicGrid>
      <latexdraw:gridGap>10</latexdraw:gridGap>
      <latexdraw:code>0</latexdraw:code>
      <latexdraw:displayGrid>true</latexdraw:displayGrid>
      <latexdraw:magneticGrid>false</latexdraw:magneticGrid>
      <latexdraw:autoUpdate>true</latexdraw:autoUpdate>
      <latexdraw:version>2.0.8</latexdraw:version>
      <latexdraw:size>
        <latexdraw:width>1280</latexdraw:width>
        <latexdraw:height>949</latexdraw:height>
      </latexdraw:size>
      <latexdraw:position>
        <latexdraw:x>0</latexdraw:x>
        <latexdraw:y>51</latexdraw:y>
      </latexdraw:position>
      <latexdraw:dividerPosition>0.70078125</latexdraw:dividerPosition>
      <latexdraw:displayCodePanel>true</latexdraw:displayCodePanel>
      <latexdraw:displayXScale>true</latexdraw:displayXScale>
      <latexdraw:displayYScale>true</latexdraw:displayYScale>
      <latexdraw:delimitorOpacity>130</latexdraw:delimitorOpacity>
    </latexdraw:metadata>
    <rdf:RDF>
      <cc:Work
         rdf:about="">
        <dc:format>image/svg+xml</dc:format>
        <dc:type
           rdf:resource="http://purl.org/dc/dcmitype/StillImage" />
        <dc:title></dc:title>
      </cc:Work>
    </rdf:RDF>
  </metadata>
  <rect
     x="34.094032"
     y="32.012005"
     width="583.70001"
     height="419.70001"
     latexdraw:borderPos="outer"
     id="rect48"
     style="fill:none;stroke:#000000;stroke-width:1.30000000000000004;stroke-opacity:1;opacity:1;stroke-miterlimit:4;stroke-dasharray:none" />
  <g
     id="g4579"
     transform="translate(-132.55596,-58.637995)"
     style="stroke:#4b4b4b;stroke-width:1;stroke-dasharray:none;stroke-opacity:1">
    <path
       id="path4581"
       d="m 166,90 0,421 m 15,-421 0,421 m 15,-421 0,421 m 15,-421 0,421 m 15,-421 0,421 m 15,-421 0,421 m 15,-421 0,421 m 15,-421 0,421 m 15,-421 0,421 m 15,-421 0,421 m 15,-421 0,421 m 15,-421 0,421 m 15,-421 0,421 m 15,-421 0,421 m 15,-421 0,421 m 15,-421 0,421 m 15,-421 0,421 m 15,-421 0,421 m 15,-421 0,421 m 15,-421 0,421 m 15,-421 0,421 m 15,-421 0,421 m 15,-421 0,421 m 15,-421 0,421 m 15,-421 0,421 m 15,-421 0,421 m 15,-421 0,421 m 15,-421 0,421 m 15,-421 0,421 m 15,-421 0,421 m 15,-421 0,421 m 15,-421 0,421 m 15,-421 0,421 m 15,-421 0,421 m 15,-421 0,421 m 15,-421 0,421 m 15,-421 0,421 m 15,-421 0,421 m 15,-421 0,421 M 166,90 751,90 m -585,15 585,0 m -585,15 585,0 m -585,15 585,0 m -585,15 585,0 m -585,15 585,0 m -585,15 585,0 m -585,15 585,0 m -585,15 585,0 m -585,15 585,0 m -585,15 585,0 m -585,15 585,0 m -585,15 585,0 m -585,15 585,0 m -585,15 585,0 m -585,15 585,0 m -585,15 585,0 m -585,15 585,0 m -585,15 585,0 m -585,15 585,0 m -585,15 585,0 m -585,15 585,0 m -585,15 585,0 m -585,15 585,0 m -585,15 585,0 m -585,15 585,0 m -585,15 585,0 m -585,15 585,0 m -585,15 585,0"
       inkscape:connector-curvature="0"
       style="stroke:#4b4b4b;stroke-opacity:1" />
  </g>
</svg>
