<?xml version="1.0" encoding="UTF-8" standalone="no"?>
<!-- Created with Inkscape (http://www.inkscape.org/) -->

<svg
   xmlns:svg="http://www.w3.org/2000/svg"
   xmlns="http://www.w3.org/2000/svg"
   version="1.1"
   width="420"
   height="275"
   id="svg2"
   xml:space="preserve"><defs
     id="defs6"><marker
       refX="0"
       refY="0"
       orient="auto"
       id="TriangleOutS"
       style="overflow:visible"><path
         d="m 5.77,0 -8.65,5 0,-10 8.65,5 z"
         transform="scale(0.2,0.2)"
         id="path4526"
         style="fill-rule:evenodd;stroke:#000000;stroke-width:1pt;marker-start:none" /></marker><marker
       refX="0"
       refY="0"
       orient="auto"
       id="TriangleOutL"
       style="overflow:visible"><path
         d="m 5.77,0 -8.65,5 0,-10 8.65,5 z"
         transform="scale(0.8,0.8)"
         id="path4520"
         style="fill-rule:evenodd;stroke:#000000;stroke-width:1pt;marker-start:none" /></marker><marker
       refX="0"
       refY="0"
       orient="auto"
       id="Arrow2Send"
       style="overflow:visible"><path
         d="M 8.7185878,4.0337352 -2.2072895,0.01601326 8.7185884,-4.0017078 c -1.7454984,2.3720609 -1.7354408,5.6174519 -6e-7,8.035443 z"
         transform="matrix(-0.3,0,0,-0.3,0.69,0)"
         id="path4410"
         style="font-size:12px;fill-rule:evenodd;stroke-width:0.625;stroke-linejoin:round" /></marker><marker
       refX="0"
       refY="0"
       orient="auto"
       id="Arrow1Send"
       style="overflow:visible"><path
         d="M 0,0 5,-5 -12.5,0 5,5 0,0 z"
         transform="matrix(-0.2,0,0,-0.2,-1.2,0)"
         id="path4392"
         style="fill-rule:evenodd;stroke:#000000;stroke-width:1pt;marker-start:none" /></marker><marker
       refX="0"
       refY="0"
       orient="auto"
       id="Arrow1Lend"
       style="overflow:visible"><path
         d="M 0,0 5,-5 -12.5,0 5,5 0,0 z"
         transform="matrix(-0.8,0,0,-0.8,-10,0)"
         id="path4380"
         style="fill-rule:evenodd;stroke:#000000;stroke-width:1pt;marker-start:none" /></marker><marker
       refX="0"
       refY="0"
       orient="auto"
       id="Arrow1Lstart"
       style="overflow:visible"><path
         d="M 0,0 5,-5 -12.5,0 5,5 0,0 z"
         transform="matrix(0.8,0,0,0.8,10,0)"
         id="path4377"
         style="fill-rule:evenodd;stroke:#000000;stroke-width:1pt;marker-start:none" /></marker><marker
       refX="0"
       refY="0"
       orient="auto"
       id="Arrow1Mend"
       style="overflow:visible"><path
         d="M 0,0 5,-5 -12.5,0 5,5 0,0 z"
         transform="matrix(-0.4,0,0,-0.4,-4,0)"
         id="path4386"
         style="fill-rule:evenodd;stroke:#000000;stroke-width:1pt;marker-start:none" /></marker><marker
       refX="0"
       refY="0"
       orient="auto"
       id="Arrow1Mstart"
       style="overflow:visible"><path
         d="M 0,0 5,-5 -12.5,0 5,5 0,0 z"
         transform="matrix(0.4,0,0,0.4,4,0)"
         id="path4383"
         style="fill-rule:evenodd;stroke:#000000;stroke-width:1pt;marker-start:none" /></marker><marker
       refX="0"
       refY="0"
       orient="auto"
       id="Arrow1Lend-2"
       style="overflow:visible"><path
         d="M 0,0 5,-5 -12.5,0 5,5 0,0 z"
         transform="matrix(-0.8,0,0,-0.8,-10,0)"
         id="path4380-0"
         style="fill-rule:evenodd;stroke:#000000;stroke-width:1pt;marker-start:none" /></marker><marker
       refX="0"
       refY="0"
       orient="auto"
       id="Arrow1Lstart-7"
       style="overflow:visible"><path
         d="M 0,0 5,-5 -12.5,0 5,5 0,0 z"
         transform="matrix(0.8,0,0,0.8,10,0)"
         id="path4377-1"
         style="fill-rule:evenodd;stroke:#000000;stroke-width:1pt;marker-start:none" /></marker><marker
       refX="0"
       refY="0"
       orient="auto"
       id="Arrow1Lend-8"
       style="overflow:visible"><path
         d="M 0,0 5,-5 -12.5,0 5,5 0,0 z"
         transform="matrix(-0.8,0,0,-0.8,-10,0)"
         id="path4380-2"
         style="fill-rule:evenodd;stroke:#000000;stroke-width:1pt;marker-start:none" /></marker><marker
       refX="0"
       refY="0"
       orient="auto"
       id="Arrow1Lend-1"
       style="overflow:visible"><path
         d="M 0,0 5,-5 -12.5,0 5,5 0,0 z"
         transform="matrix(-0.8,0,0,-0.8,-10,0)"
         id="path4380-7"
         style="fill-rule:evenodd;stroke:#000000;stroke-width:1pt;marker-start:none" /></marker><marker
       refX="0"
       refY="0"
       orient="auto"
       id="Arrow1Lend-7"
       style="overflow:visible"><path
         d="M 0,0 5,-5 -12.5,0 5,5 0,0 z"
         transform="matrix(-0.8,0,0,-0.8,-10,0)"
         id="path4380-00"
         style="fill-rule:evenodd;stroke:#000000;stroke-width:1pt;marker-start:none" /></marker><marker
       refX="0"
       refY="0"
       orient="auto"
       id="TriangleOutS-6"
       style="overflow:visible"><path
         d="m 5.77,0 -8.65,5 0,-10 8.65,5 z"
         transform="scale(0.2,0.2)"
         id="path4526-1"
         style="fill-rule:evenodd;stroke:#000000;stroke-width:1pt;marker-start:none" /></marker><marker
       refX="0"
       refY="0"
       orient="auto"
       id="TriangleOutS-9"
       style="overflow:visible"><path
         d="m 5.77,0 -8.65,5 0,-10 8.65,5 z"
         transform="scale(0.2,0.2)"
         id="path4526-4"
         style="fill-rule:evenodd;stroke:#000000;stroke-width:1pt;marker-start:none" /></marker></defs><g
     transform="matrix(1.25,0,0,-1.25,-24.423729,753.74313)"
     id="g12"><g
       transform="matrix(0.84158922,0,0,0.84038693,8.2252651,77.15955)"
       id="g4351"><text
         x="111.30137"
         y="-542.36786"
         transform="scale(1,-1)"
         id="text3351"
         xml:space="preserve"
         style="font-size:9.51262283px;font-style:normal;font-variant:normal;font-weight:normal;font-stretch:normal;text-align:center;line-height:125%;writing-mode:lr-tb;text-anchor:middle;fill:#000000;fill-opacity:1;stroke:none;font-family:Monospace;-inkscape-font-specification:Monospace"><tspan
           x="111.30137"
           y="-542.36786"
           id="tspan3353">Reduced</tspan><tspan
           x="111.30137"
           y="-530.47705"
           id="tspan3355">ContinuousFunction()</tspan></text>
<rect
         width="145.73087"
         height="33.766907"
         ry="11.551837"
         x="37.765621"
         y="-556.26538"
         transform="scale(1,-1)"
         id="rect3537"
         style="fill:none;stroke:#000000;stroke-width:1.90252447;stroke-linecap:round;stroke-linejoin:round;stroke-miterlimit:4;stroke-opacity:1;stroke-dasharray:none;stroke-dashoffset:0" /></g><g
       transform="matrix(0.84158922,0,0,0.84038693,8.2252651,168.63677)"
       id="g4357"><text
         x="111.30137"
         y="-491.93771"
         transform="scale(1,-1)"
         id="text3351-6"
         xml:space="preserve"
         style="font-size:9.51262283px;font-style:normal;font-variant:normal;font-weight:normal;font-stretch:normal;text-align:center;line-height:125%;writing-mode:lr-tb;text-anchor:middle;fill:#000000;fill-opacity:1;stroke:none;font-family:Monospace;-inkscape-font-specification:Monospace"><tspan
           x="111.30137"
           y="-491.93771"
           id="tspan3355-8">ContinuousFunction()</tspan></text>
<rect
         width="145.73087"
         height="33.766907"
         ry="11.551837"
         x="37.765621"
         y="-511.83524"
         transform="scale(1,-1)"
         id="rect3537-7"
         style="fill:none;stroke:#000000;stroke-width:1.90252447;stroke-linecap:round;stroke-linejoin:round;stroke-miterlimit:4;stroke-opacity:1;stroke-dasharray:none;stroke-dashoffset:0" /></g><g
       transform="matrix(0.84158922,0,0,0.84038693,6.72959,70.43646)"
       id="g5637"><text
         x="321.81552"
         y="-608.76324"
         transform="scale(1,-1)"
         id="text3351-6-9"
         xml:space="preserve"
         style="font-size:9.51262283px;font-style:normal;font-variant:normal;font-weight:normal;font-stretch:normal;text-align:center;line-height:125%;writing-mode:lr-tb;text-anchor:middle;fill:#000000;fill-opacity:1;stroke:none;font-family:Monospace;-inkscape-font-specification:Monospace"><tspan
           x="321.81552"
           y="-608.76324"
           id="tspan3355-8-8">Solution()</tspan></text>
<rect
         width="145.73087"
         height="33.766907"
         ry="11.551837"
         x="248.27975"
         y="-628.68652"
         transform="scale(1,-1)"
         id="rect3537-0"
         style="fill:none;stroke:#000000;stroke-width:1.90252447;stroke-linecap:round;stroke-linejoin:round;stroke-miterlimit:4;stroke-opacity:1;stroke-dasharray:none;stroke-dashoffset:0" /></g><g
       transform="matrix(0.84158922,0,0,0.84038693,183.89601,210.83142)"
       id="g4367"><text
         x="111.29199"
         y="-378.17078"
         transform="scale(1,-1)"
         id="text3351-6-9-3"
         xml:space="preserve"
         style="font-size:9.51262283px;font-style:normal;font-variant:normal;font-weight:normal;font-stretch:normal;text-align:center;line-height:125%;writing-mode:lr-tb;text-anchor:middle;fill:#000000;fill-opacity:1;stroke:none;font-family:Monospace;-inkscape-font-specification:Monospace"><tspan
           x="111.29199"
           y="-378.17078"
           id="tspan3355-8-8-4">ReducedSolution()</tspan></text>
<rect
         width="145.73087"
         height="33.766907"
         ry="11.551837"
         x="37.765621"
         y="-398.09409"
         transform="scale(1,-1)"
         id="rect3537-3"
         style="fill:none;stroke:#000000;stroke-width:1.90252447;stroke-linecap:round;stroke-linejoin:round;stroke-miterlimit:4;stroke-opacity:1;stroke-dasharray:none;stroke-dashoffset:0" /></g><path
       d="m 167.9257,584.58778 42.62681,0"
       id="path4372"
       style="fill:none;stroke:#000000;stroke-width:0.79999995px;stroke-linecap:butt;stroke-linejoin:miter;stroke-opacity:1;marker-start:url(#Arrow1Lstart);marker-end:url(#Arrow1Lend)" /><path
       d="m 101.33117,567.64223 0,-18.0559"
       id="path5392"
       style="fill:none;stroke:#000000;stroke-width:0.80000001px;stroke-linecap:butt;stroke-linejoin:miter;stroke-opacity:1;marker-end:url(#Arrow1Lend)" /><path
       d="m 277.00192,567.6424 0,-18.05623"
       id="path5392-0"
       style="fill:none;stroke:#000000;stroke-width:0.79999995px;stroke-linecap:butt;stroke-linejoin:miter;stroke-opacity:1;marker-start:none;marker-end:url(#Arrow1Lend)" /><g
       transform="matrix(0.84158922,0,0,0.84038693,-1.371258,62.93849)"
       id="g5697"><text
         x="122.48392"
         y="-450.23294"
         transform="scale(1,-1)"
         id="text3351-6-9-3-1"
         xml:space="preserve"
         style="font-size:9.51262283px;font-style:normal;font-variant:normal;font-weight:normal;font-stretch:normal;text-align:center;line-height:125%;writing-mode:lr-tb;text-anchor:middle;fill:#000000;fill-opacity:1;stroke:none;font-family:Monospace;-inkscape-font-specification:Monospace"><tspan
           x="122.48392"
           y="-450.23294"
           id="tspan3355-8-8-4-7">FunctionOnBoundary()</tspan></text>
<rect
         width="145.73087"
         height="33.766907"
         ry="11.551837"
         x="49.16848"
         y="-469.76483"
         transform="scale(1,-1)"
         id="rect3537-0-2"
         style="fill:none;stroke:#000000;stroke-width:1.90252447;stroke-linecap:round;stroke-linejoin:round;stroke-miterlimit:4;stroke-opacity:1;stroke-dasharray:none;stroke-dashoffset:0" /></g><g
       transform="matrix(0.84158922,0,0,0.84038693,162.88813,116.49536)"
       id="g5692"><text
         x="136.04321"
         y="-386.13849"
         transform="scale(1,-1)"
         id="text3351-6-9-3-1-2"
         xml:space="preserve"
         style="font-size:9.51262283px;font-style:normal;font-variant:normal;font-weight:normal;font-stretch:normal;text-align:center;line-height:125%;writing-mode:lr-tb;text-anchor:middle;fill:#000000;fill-opacity:1;stroke:none;font-family:Monospace;-inkscape-font-specification:Monospace"><tspan
           x="136.04321"
           y="-386.13849"
           id="tspan3355-8-8-4-7-9">Function()</tspan></text>
<rect
         width="145.73087"
         height="33.766907"
         ry="11.551837"
         x="62.727787"
         y="-406.03601"
         transform="scale(1,-1)"
         id="rect3537-0-2-1"
         style="fill:none;stroke:#000000;stroke-width:1.90252447;stroke-linecap:round;stroke-linejoin:round;stroke-miterlimit:4;stroke-opacity:1;stroke-dasharray:none;stroke-dashoffset:0" /></g><g
       transform="matrix(0.84158922,0,0,0.84038693,-13.923761,118.77437)"
       id="g5687"><text
         x="137.39915"
         y="-330.54526"
         transform="scale(1,-1)"
         id="text3351-6-9-3-1-2-7"
         xml:space="preserve"
         style="font-size:9.51262283px;font-style:normal;font-variant:normal;font-weight:normal;font-stretch:normal;text-align:center;line-height:125%;writing-mode:lr-tb;text-anchor:middle;fill:#000000;fill-opacity:1;stroke:none;font-family:Monospace;-inkscape-font-specification:Monospace"><tspan
           x="137.39915"
           y="-330.54526"
           id="tspan3355-8-8-4-7-9-8">FunctionOnContactZero()</tspan></text>
<rect
         width="145.73087"
         height="33.766907"
         ry="11.551837"
         x="64.083717"
         y="-350.44278"
         transform="scale(1,-1)"
         id="rect3537-0-2-8"
         style="fill:none;stroke:#000000;stroke-width:1.90252447;stroke-linecap:round;stroke-linejoin:round;stroke-miterlimit:4;stroke-opacity:1;stroke-dasharray:none;stroke-dashoffset:0" /></g><g
       transform="matrix(0.84158922,0,0,0.84038693,175.44064,178.02877)"
       id="g5682"><text
         x="121.12797"
         y="-260.03677"
         transform="scale(1,-1)"
         id="text3351-6-9-3-1-2-7-2"
         xml:space="preserve"
         style="font-size:9.51262283px;font-style:normal;font-variant:normal;font-weight:normal;font-stretch:normal;text-align:center;line-height:125%;writing-mode:lr-tb;text-anchor:middle;fill:#000000;fill-opacity:1;stroke:none;font-family:Monospace;-inkscape-font-specification:Monospace"><tspan
           x="121.12797"
           y="-260.03677"
           id="tspan3355-8-8-4-7-9-8-3">FunctionOnContactOne()</tspan></text>
<rect
         width="145.73087"
         height="33.766907"
         ry="11.551837"
         x="47.812534"
         y="-279.9343"
         transform="scale(1,-1)"
         id="rect3537-0-2-87"
         style="fill:none;stroke:#000000;stroke-width:1.90252447;stroke-linecap:round;stroke-linejoin:round;stroke-miterlimit:4;stroke-opacity:1;stroke-dasharray:none;stroke-dashoffset:0" /></g><path
       d="m 167.9257,399.09327 42.62681,0"
       id="path4372-1"
       style="fill:none;stroke:#000000;stroke-width:0.79999995px;stroke-linecap:butt;stroke-linejoin:miter;stroke-opacity:1;marker-start:url(#Arrow1Lstart);marker-end:url(#Arrow1Lend)" /><path
       d="m 24.457468,493.03429 328.955512,0"
       id="path5736"
       style="fill:none;stroke:#000000;stroke-width:1.60000002;stroke-linecap:butt;stroke-linejoin:miter;stroke-miterlimit:4;stroke-opacity:1;stroke-dasharray:1.60000001, 3.20000002;stroke-dashoffset:0" /><path
       d="m 272.10539,506.0961 0,-25.3902"
       id="path5392-6"
       style="fill:none;stroke:#000000;stroke-width:11.19999981;stroke-linecap:butt;stroke-linejoin:miter;stroke-miterlimit:4;stroke-opacity:1;stroke-dasharray:none;marker-end:url(#TriangleOutS)" /><path
       d="m 186.75034,506.0961 0,-25.3902"
       id="path5392-6-6"
       style="fill:none;stroke:#000000;stroke-width:11.19999981;stroke-linecap:butt;stroke-linejoin:miter;stroke-miterlimit:4;stroke-opacity:1;stroke-dasharray:none;marker-end:url(#TriangleOutS)" /><path
       d="m 101.39528,506.0961 0,-25.3902"
       id="path5392-6-7"
       style="fill:none;stroke:#000000;stroke-width:11.19999981;stroke-linecap:butt;stroke-linejoin:miter;stroke-miterlimit:4;stroke-opacity:1;stroke-dasharray:none;marker-end:url(#TriangleOutS)" /></g></svg>