<?xml version="1.0" encoding="UTF-8" standalone="no"?>
<svg
   xmlns:dc="http://purl.org/dc/elements/1.1/"
   xmlns:cc="http://creativecommons.org/ns#"
   xmlns:rdf="http://www.w3.org/1999/02/22-rdf-syntax-ns#"
   xmlns:svg="http://www.w3.org/2000/svg"
   xmlns="http://www.w3.org/2000/svg"
   xmlns:sodipodi="http://sodipodi.sourceforge.net/DTD/sodipodi-0.dtd"
   xmlns:inkscape="http://www.inkscape.org/namespaces/inkscape"
   width="388.64999"
   height="275.76999"
   viewBox="-149 692 214.71798 155.31847"
   id="svg2"
   version="1.1"
   inkscape:version="0.47 r22583"
   sodipodi:docname="EscriptDiagram2.svg">
  <metadata
     id="metadata342">
    <rdf:RDF>
      <cc:Work
         rdf:about="">
        <dc:format>image/svg+xml</dc:format>
        <dc:type
           rdf:resource="http://purl.org/dc/dcmitype/StillImage" />
        <dc:title />
      </cc:Work>
    </rdf:RDF>
  </metadata>
  <defs
     id="defs340">
    <inkscape:perspective
       sodipodi:type="inkscape:persp3d"
       inkscape:vp_x="0 : 407.48032 : 1"
       inkscape:vp_y="0 : 1000 : 0"
       inkscape:vp_z="1169.2914 : 407.48032 : 1"
       inkscape:persp3d-origin="584.64569 : 271.65354 : 1"
       id="perspective344" />
  </defs>
  <sodipodi:namedview
     pagecolor="#ffffff"
     bordercolor="#666666"
     borderopacity="1"
     objecttolerance="10"
     gridtolerance="10"
     guidetolerance="10"
     inkscape:pageopacity="0"
     inkscape:pageshadow="2"
     inkscape:window-width="1052"
     inkscape:window-height="882"
     id="namedview338"
     showgrid="false"
     inkscape:zoom="1.52"
     inkscape:cx="195.39699"
     inkscape:cy="178.99645"
     inkscape:window-x="0"
     inkscape:window-y="25"
     inkscape:window-maximized="0"
     inkscape:current-layer="svg2"
     inkscape:object-nodes="true"
     showguides="true"
     inkscape:guide-bbox="true" />
  <g
     id="g6"
     transform="matrix(0.33527065,0,0,0.33527065,-99.281545,460.71462)">
    <path
       style="fill:#e5e5e5"
       d="m 81.27,750.33 c 143.977,15.93 317.023,105.07 214.2,289.8 C 192.647,1224.86 -62.7071,734.4 81.27,750.33 z"
       id="path8" />
    <path
       style="fill:none;stroke:#000000;stroke-width:1.25999999"
       d="m 81.27,750.33 c 143.977,15.93 317.023,105.07 214.2,289.8 C 192.647,1224.86 -62.7071,734.4 81.27,750.33"
       id="path10" />
  </g>
  <polygon
     style="fill:none;stroke:#000000;stroke-width:1.25999999"
     points="142.38,834.12 41.58,834.12 54.18,758.52 "
     id="polygon12"
     transform="matrix(0.33527065,0,0,0.33527065,-99.281545,460.71462)" />
  <polygon
     style="fill:none;stroke:#000000;stroke-width:1.25999999"
     points="255.78,884.52 192.78,922.32 142.38,834.12 "
     id="polygon14"
     transform="matrix(0.33527065,0,0,0.33527065,-99.281545,460.71462)" />
  <polygon
     style="fill:none;stroke:#000000;stroke-width:1.25999999"
     points="192.78,922.32 117.18,997.92 66.78,897.12 "
     id="polygon16"
     transform="matrix(0.33527065,0,0,0.33527065,-99.281545,460.71462)" />
  <polygon
     style="fill:none;stroke:#000000;stroke-width:1.25999999"
     points="268.38,821.52 255.78,884.52 142.38,834.12 "
     id="polygon18"
     transform="matrix(0.33527065,0,0,0.33527065,-99.281545,460.71462)" />
  <polygon
     style="fill:none;stroke:#000000;stroke-width:1.25999999"
     points="318.78,985.32 230.58,1010.52 192.78,922.32 "
     id="polygon20"
     transform="matrix(0.33527065,0,0,0.33527065,-99.281545,460.71462)" />
  <polygon
     style="fill:none;stroke:#000000;stroke-width:1.25999999"
     points="230.58,1010.52 205.38,1073.52 117.18,997.92 "
     id="polygon22"
     transform="matrix(0.33527065,0,0,0.33527065,-99.281545,460.71462)" />
  <polygon
     style="fill:none;stroke:#000000;stroke-width:1.25999999"
     points="318.78,985.32 280.98,1060.92 230.58,1010.52 "
     id="polygon24"
     transform="matrix(0.33527065,0,0,0.33527065,-99.281545,460.71462)" />
  <polygon
     style="fill:none;stroke:#000000;stroke-width:1.25999999"
     points="331.38,909.72 318.78,985.32 255.78,884.52 "
     id="polygon26"
     transform="matrix(0.33527065,0,0,0.33527065,-99.281545,460.71462)" />
  <polygon
     style="fill:none;stroke:#000000;stroke-width:1.25999999"
     points="432.18,909.72 419.58,1023.12 331.38,909.72 "
     id="polygon28"
     transform="matrix(0.33527065,0,0,0.33527065,-99.281545,460.71462)" />
  <polygon
     style="fill:none;stroke:#000000;stroke-width:1.25999999"
     points="419.58,1023.12 381.78,1098.72 318.78,985.32 "
     id="polygon30"
     transform="matrix(0.33527065,0,0,0.33527065,-99.281545,460.71462)" />
  <polygon
     style="fill:none;stroke:#000000;stroke-width:1.25999999"
     points="381.78,1098.72 318.78,1149.12 280.98,1060.92 "
     id="polygon32"
     transform="matrix(0.33527065,0,0,0.33527065,-99.281545,460.71462)" />
  <polygon
     style="fill:none;stroke:#000000;stroke-width:1.26635206"
     points="205.38,1073.52 280.98,1060.92 230.58,1149.12 "
     id="polygon34"
     transform="matrix(0.33527065,0,0,0.33191565,-99.281545,464.27401)" />
  <polygon
     style="fill:none;stroke:#000000;stroke-width:1.26369369"
     points="117.18,997.92 205.38,1073.52 117.18,1149.12 "
     id="polygon36"
     transform="matrix(0.33527065,0,0,0.33331357,-99.281545,462.66763)" />
  <polygon
     style="fill:none;stroke:#000000;stroke-width:1.25999999"
     points="117.18,997.92 41.58,1060.92 3.78,972.72 "
     id="polygon38"
     transform="matrix(0.33527065,0,0,0.33527065,-99.281545,460.71462)" />
  <polygon
     style="fill:none;stroke:#000000;stroke-width:1.25999999"
     points="41.58,1060.92 -46.62,1149.12 117.18,1149.12 "
     id="polygon40"
     transform="matrix(0.33527065,0,0,0.33527065,-99.281545,460.71462)" />
  <polygon
     style="fill:none;stroke:#000000;stroke-width:1.26316404"
     points="-147.42,1010.52 3.78,972.72 -46.62,1149.12 "
     id="polygon42"
     transform="matrix(0.33527065,0,0,0.33359315,-99.281545,462.34636)" />
  <polygon
     style="fill:none;stroke:#000000;stroke-width:1.25999999"
     points="66.78,897.12 3.78,972.72 -21.42,871.92 "
     id="polygon44"
     transform="matrix(0.33527065,0,0,0.33527065,-99.281545,460.71462)" />
  <polygon
     style="fill:none;stroke:#000000;stroke-width:1.25999999"
     points="-21.42,871.92 -147.42,1010.52 -147.42,884.52 "
     id="polygon46"
     transform="matrix(0.33527065,0,0,0.33527065,-99.281545,460.71462)" />
  <polygon
     style="fill:none;stroke:#000000;stroke-width:1.26295233"
     points="-84.42,771.12 -21.42,871.92 -147.42,884.52 "
     id="polygon48"
     transform="matrix(0.33370498,0,0,0.33527065,-99.315082,460.71462)" />
  <polygon
     style="fill:none;stroke:#000000;stroke-width:1.25999999"
     points="54.18,758.52 -21.42,871.92 -84.42,771.12 "
     id="polygon50"
     transform="matrix(0.33527065,0,0,0.33527065,-99.281545,460.71462)" />
  <polygon
     style="fill:none;stroke:#000000;stroke-width:1.25999999"
     points="-84.42,771.12 -147.42,695.52 -21.42,695.52 "
     id="polygon52"
     transform="matrix(0.33293376,0,0,0.33529,-99.33087,460.70043)" />
  <polygon
     style="fill:none;stroke:#000000;stroke-width:1.25999999"
     points="79.38,695.52 54.18,758.52 -21.42,695.52 "
     id="polygon54"
     transform="matrix(0.33527065,0,0,0.33527065,-99.281545,460.71462)" />
  <polygon
     style="fill:none;stroke:#000000;stroke-width:1.25999999"
     points="142.38,758.52 142.38,834.12 54.18,758.52 "
     id="polygon56"
     transform="matrix(0.33527065,0,0,0.33527065,-99.281545,460.71462)" />
  <polygon
     style="fill:none;stroke:#000000;stroke-width:1.25999999"
     points="180.18,695.52 142.38,758.52 79.38,695.52 "
     id="polygon58"
     transform="matrix(0.33527065,0,0,0.33527065,-99.281545,460.71462)" />
  <polygon
     style="fill:none;stroke:#000000;stroke-width:1.25999999"
     points="41.58,834.12 66.78,897.12 -21.42,871.92 "
     id="polygon60"
     transform="matrix(0.33527065,0,0,0.33527065,-99.281545,460.71462)" />
  <polygon
     style="fill:none;stroke:#000000;stroke-width:1.25999999"
     points="192.78,922.32 66.78,897.12 142.38,834.12 "
     id="polygon62"
     transform="matrix(0.33527065,0,0,0.33527065,-99.281545,460.71462)" />
  <polygon
     style="fill:none;stroke:#000000;stroke-width:1.25999999"
     points="306.18,758.52 268.38,821.52 180.18,695.52 "
     id="polygon64"
     transform="matrix(0.33527065,0,0,0.33527065,-99.281545,460.71462)" />
  <polygon
     style="fill:none;stroke:#000000;stroke-width:1.25999999"
     points="268.38,821.52 142.38,834.12 142.38,758.52 "
     id="polygon66"
     transform="matrix(0.33527065,0,0,0.33527065,-99.281545,460.71462)" />
  <polygon
     style="fill:none;stroke:#000000;stroke-width:1.26210666"
     points="306.18,695.52 394.38,783.72 306.18,758.52 "
     id="polygon68"
     transform="matrix(0.33527065,0,0,0.33415232,-99.281545,461.59108)" />
  <polygon
     style="fill:none;stroke:#000000;stroke-width:1.25999999"
     points="394.38,783.72 331.38,909.72 268.38,821.52 "
     id="polygon70"
     transform="matrix(0.33527065,0,0,0.33527065,-99.281545,460.71462)" />
  <polygon
     style="fill:none;stroke:#000000;stroke-width:1.26742005"
     points="394.38,783.72 495.18,834.12 432.18,909.72 "
     id="polygon72"
     transform="matrix(0.33135648,0,0,0.33527065,-97.737875,460.71462)" />
  <polygon
     style="fill:none;stroke:#000000;stroke-width:1.27380955"
     points="394.38,783.72 495.18,783.72 394.38,695.52 "
     id="polygon74"
     transform="matrix(0.33135648,0,0,0.33191565,-97.737875,463.344)" />
  <polygon
     style="fill:none;stroke:#000000;stroke-width:1.25999999"
     points="495.18,909.72 495.18,1048.32 432.18,909.72 "
     id="polygon76"
     transform="matrix(0.33527065,0,0,0.33527065,-99.281545,460.71462)" />
  <polygon
     style="fill:none;stroke:#000000;stroke-width:1.26742005"
     points="495.18,1048.32 432.18,1149.12 419.58,1023.12 "
     id="polygon78"
     transform="matrix(0.33527065,0,0,0.33135648,-99.281545,464.71928)" />
  <polygon
     style="fill:none;stroke:#000000;stroke-width:1.25999999"
     points="432.18,1149.12 318.78,1149.12 381.78,1098.72 "
     id="polygon80"
     transform="matrix(0.33527065,0,0,0.33527065,-99.281545,460.71462)" />
  <text
     style="font-size:10.0px;font-style:normal;font-weight:normal;text-anchor:start;fill:#000000;font-family:serif"
     x="-144.4827"
     y="723.47284"
     id="text82">
    <tspan
       x="-144.4827"
       y="723.47284"
       id="tspan84">1</tspan>
  </text>
  <text
     style="font-size:10.0px;font-style:normal;font-weight:normal;text-anchor:start;fill:#000000;font-family:serif"
     x="-127.58505"
     y="744.59491"
     id="text86">
    <tspan
       x="-127.58505"
       y="744.59491"
       id="tspan88">1</tspan>
  </text>
  <text
     style="font-size:10.0px;font-style:normal;font-weight:normal;text-anchor:start;fill:#000000;font-family:serif"
     x="-127.58505"
     y="706.57526"
     id="text90">
    <tspan
       x="-127.58505"
       y="706.57526"
       id="tspan92">1</tspan>
  </text>
  <text
     style="font-size:10.0px;font-style:normal;font-weight:normal;text-anchor:start;fill:#000000;font-family:serif"
     x="-106.46304"
     y="710.79962"
     id="text94">
    <tspan
       x="-106.46304"
       y="710.79962"
       id="tspan96">1</tspan>
  </text>
  <text
     style="font-size:10px;font-style:normal;font-weight:normal;text-anchor:start;fill:#000000;font-family:serif"
     x="-87.593849"
     y="705.44879"
     id="text98">
    <tspan
       x="-87.593849"
       y="705.44879"
       id="tspan100">1</tspan>
  </text>
  <text
     style="font-size:10px;font-style:normal;font-weight:normal;text-anchor:start;fill:#000000;font-family:serif"
     x="-70.696205"
     y="709.67316"
     id="text102">
    <tspan
       x="-70.696205"
       y="709.67316"
       id="tspan104">1</tspan>
  </text>
  <text
     style="font-size:10.0px;font-style:normal;font-weight:normal;text-anchor:start;fill:#000000;font-family:serif"
     x="-38.872463"
     y="715.02405"
     id="text106">
    <tspan
       x="-38.872463"
       y="715.02405"
       id="tspan108">1</tspan>
  </text>
  <text
     style="font-size:10.0px;font-style:normal;font-weight:normal;text-anchor:start;fill:#000000;font-family:serif"
     x="-55.770103"
     y="706.57526"
     id="text110">
    <tspan
       x="-55.770103"
       y="706.57526"
       id="tspan112">1</tspan>
  </text>
  <text
     style="font-size:10.0px;font-style:normal;font-weight:normal;text-anchor:start;fill:#000000;font-family:serif"
     x="-108.43456"
     y="731.92169"
     id="text114">
    <tspan
       x="-108.43456"
       y="731.92169"
       id="tspan116">1</tspan>
  </text>
  <text
     style="font-size:10.0px;font-style:normal;font-weight:normal;text-anchor:start;fill:#000000;font-family:serif"
     x="-93.789803"
     y="740.37048"
     id="text118">
    <tspan
       x="-93.789803"
       y="740.37048"
       id="tspan120">1</tspan>
  </text>
  <text
     style="font-size:10.0px;font-style:normal;font-weight:normal;text-anchor:start;fill:#000000;font-family:serif"
     x="-139.13185"
     y="771.06787"
     id="text122">
    <tspan
       x="-139.13185"
       y="771.06787"
       id="tspan124">1</tspan>
  </text>
  <text
     style="font-size:10px;font-style:normal;font-weight:normal;text-anchor:start;fill:#000000;font-family:serif"
     x="-140.25829"
     y="834.43396"
     id="text126">
    <tspan
       x="-140.25829"
       y="834.43396"
       id="tspan128">1</tspan>
  </text>
  <text
     style="font-size:10.0px;font-style:normal;font-weight:normal;text-anchor:start;fill:#000000;font-family:serif"
     x="-123.36065"
     y="812.18549"
     id="text130">
    <tspan
       x="-123.36065"
       y="812.18549"
       id="tspan132">1</tspan>
  </text>
  <text
     style="font-size:10.0px;font-style:normal;font-weight:normal;text-anchor:start;fill:#000000;font-family:serif"
     x="-116.03828"
     y="782.61462"
     id="text134">
    <tspan
       x="-116.03828"
       y="782.61462"
       id="tspan136">1</tspan>
  </text>
  <text
     style="font-size:10.0px;font-style:normal;font-weight:normal;text-anchor:start;fill:#000000;font-family:serif"
     x="-93.789803"
     y="769.94141"
     id="text138">
    <tspan
       x="-93.789803"
       y="769.94141"
       id="tspan140">1</tspan>
  </text>
  <text
     style="font-size:10.0px;font-style:normal;font-weight:normal;text-anchor:start;fill:#000000;font-family:serif"
     x="-90.691826"
     y="753.04376"
     id="text142">
    <tspan
       x="-90.691826"
       y="753.04376"
       id="tspan144">1</tspan>
  </text>
  <text
     style="font-size:10.0px;font-style:normal;font-weight:normal;text-anchor:start;fill:#000000;font-family:serif"
     x="-81.11657"
     y="782.61462"
     id="text146">
    <tspan
       x="-81.11657"
       y="782.61462"
       id="tspan148">1</tspan>
  </text>
  <text
     style="font-size:10.0px;font-style:normal;font-weight:normal;text-anchor:start;fill:#000000;font-family:serif"
     x="-85.340981"
     y="803.73669"
     id="text150">
    <tspan
       x="-85.340981"
       y="803.73669"
       id="tspan152">1</tspan>
  </text>
  <text
     style="font-size:10px;font-style:normal;font-weight:normal;text-anchor:start;fill:#000000;font-family:serif"
     x="-99.14064"
     y="816.40991"
     id="text154">
    <tspan
       x="-99.14064"
       y="816.40991"
       id="tspan156">1</tspan>
  </text>
  <text
     style="font-size:10.0px;font-style:normal;font-weight:normal;text-anchor:start;fill:#000000;font-family:serif"
     x="-89.565392"
     y="837.53198"
     id="text158">
    <tspan
       x="-89.565392"
       y="837.53198"
       id="tspan160">1</tspan>
  </text>
  <text
     style="font-size:10.0px;font-style:normal;font-weight:normal;text-anchor:start;fill:#000000;font-family:serif"
     x="-70.696205"
     y="820.63434"
     id="text162">
    <tspan
       x="-70.696205"
       y="820.63434"
       id="tspan164">1</tspan>
  </text>
  <text
     style="font-size:10.0px;font-style:normal;font-weight:normal;text-anchor:start;fill:#000000;font-family:serif"
     x="-52.672127"
     y="821.7608"
     id="text166">
    <tspan
       x="-52.672127"
       y="821.7608"
       id="tspan168">1</tspan>
  </text>
  <text
     style="font-size:10px;font-style:normal;font-weight:normal;text-anchor:start;fill:#000000;font-family:serif"
     x="-15.497544"
     y="719.24847"
     id="text170">
    <tspan
       x="-15.497544"
       y="719.24847"
       id="tspan172">1</tspan>
  </text>
  <text
     style="font-size:10px;font-style:normal;font-weight:normal;text-anchor:start;fill:#000000;font-family:serif"
     x="-9.3015842"
     y="704.60376"
     id="text174">
    <tspan
       x="-9.3015842"
       y="704.60376"
       id="tspan176">1</tspan>
  </text>
  <text
     style="font-size:10px;font-style:normal;font-weight:normal;text-anchor:start;fill:#000000;font-family:serif"
     x="7.5960526"
     y="711.92609"
     id="text178">
    <tspan
       x="7.5960526"
       y="711.92609"
       id="tspan180">1</tspan>
  </text>
  <text
     style="font-size:10.0px;font-style:normal;font-weight:normal;text-anchor:start;fill:#000000;font-family:serif"
     x="20.269278"
     y="706.57526"
     id="text182">
    <tspan
       x="20.269278"
       y="706.57526"
       id="tspan184">1</tspan>
  </text>
  <text
     style="font-size:10.0px;font-style:normal;font-weight:normal;text-anchor:start;fill:#000000;font-family:serif"
     x="41.391327"
     y="716.15051"
     id="text186">
    <tspan
       x="41.391327"
       y="716.15051"
       id="tspan188">1</tspan>
  </text>
  <text
     style="font-size:10.0px;font-style:normal;font-weight:normal;text-anchor:start;fill:#000000;font-family:serif"
     x="54.064564"
     y="706.57526"
     id="text190">
    <tspan
       x="54.064564"
       y="706.57526"
       id="tspan192">1</tspan>
  </text>
  <text
     style="font-size:10.0px;font-style:normal;font-weight:normal;text-anchor:start;fill:#000000;font-family:serif"
     x="3.37164"
     y="727.69727"
     id="text194">
    <tspan
       x="3.37164"
       y="727.69727"
       id="tspan196">1</tspan>
  </text>
  <text
     style="font-size:10px;font-style:normal;font-weight:normal;text-anchor:start;fill:#000000;font-family:serif"
     x="9.5675936"
     y="745.72137"
     id="text198">
    <tspan
       x="9.5675936"
       y="745.72137"
       id="tspan200">1</tspan>
  </text>
  <text
     style="font-size:10.0px;font-style:normal;font-weight:normal;text-anchor:start;fill:#000000;font-family:serif"
     x="27.591667"
     y="751.07227"
     id="text202">
    <tspan
       x="27.591667"
       y="751.07227"
       id="tspan204">1</tspan>
  </text>
  <text
     style="font-size:10.0px;font-style:normal;font-weight:normal;text-anchor:start;fill:#000000;font-family:serif"
     x="46.742172"
     y="747.69287"
     id="text206">
    <tspan
       x="46.742172"
       y="747.69287"
       id="tspan208">1</tspan>
  </text>
  <text
     style="font-size:10.0px;font-style:normal;font-weight:normal;text-anchor:start;fill:#000000;font-family:serif"
     x="57.16254"
     y="733.04816"
     id="text210">
    <tspan
       x="57.16254"
       y="733.04816"
       id="tspan212">1</tspan>
  </text>
  <text
     style="font-size:10px;font-style:normal;font-weight:normal;text-anchor:start;fill:#000000;font-family:serif"
     x="31.816082"
     y="780.64313"
     id="text214">
    <tspan
       x="31.816082"
       y="780.64313"
       id="tspan216">1</tspan>
  </text>
  <text
     style="font-size:10.0px;font-style:normal;font-weight:normal;text-anchor:start;fill:#000000;font-family:serif"
     x="16.044878"
     y="791.06342"
     id="text218">
    <tspan
       x="16.044878"
       y="791.06342"
       id="tspan220">1</tspan>
  </text>
  <text
     style="font-size:10.0px;font-style:normal;font-weight:normal;text-anchor:start;fill:#000000;font-family:serif"
     x="-21.974821"
     y="833.3075"
     id="text222">
    <tspan
       x="-21.974821"
       y="833.3075"
       id="tspan224">1</tspan>
  </text>
  <text
     style="font-size:10.0px;font-style:normal;font-weight:normal;text-anchor:start;fill:#000000;font-family:serif"
     x="-38.872463"
     y="841.75635"
     id="text226">
    <tspan
       x="-38.872463"
       y="841.75635"
       id="tspan228">1</tspan>
  </text>
  <text
     style="font-size:10.0px;font-style:normal;font-weight:normal;text-anchor:start;fill:#000000;font-family:serif"
     x="-9.3015842"
     y="837.53198"
     id="text230">
    <tspan
       x="-9.3015842"
       y="837.53198"
       id="tspan232">1</tspan>
  </text>
  <text
     style="font-size:10.0px;font-style:normal;font-weight:normal;text-anchor:start;fill:#000000;font-family:serif"
     x="7.5960526"
     y="833.3075"
     id="text234">
    <tspan
       x="7.5960526"
       y="833.3075"
       id="tspan236">1</tspan>
  </text>
  <text
     style="font-size:10.0px;font-style:normal;font-weight:normal;text-anchor:start;fill:#000000;font-family:serif"
     x="11.820464"
     y="816.40991"
     id="text238">
    <tspan
       x="11.820464"
       y="816.40991"
       id="tspan240">1</tspan>
  </text>
  <text
     style="font-size:10.0px;font-style:normal;font-weight:normal;text-anchor:start;fill:#000000;font-family:serif"
     x="24.493689"
     y="807.96106"
     id="text242">
    <tspan
       x="24.493689"
       y="807.96106"
       id="tspan244">1</tspan>
  </text>
  <text
     style="font-size:10px;font-style:normal;font-weight:normal;text-anchor:start;fill:#000000;font-family:serif"
     x="47.868607"
     y="797.54077"
     id="text246">
    <tspan
       x="47.868607"
       y="797.54077"
       id="tspan248">1</tspan>
  </text>
  <text
     style="font-size:10px;font-style:normal;font-weight:normal;text-anchor:start;fill:#000000;font-family:serif"
     x="57.16254"
     y="780.64313"
     id="text250">
    <tspan
       x="57.16254"
       y="780.64313"
       id="tspan252">1</tspan>
  </text>
  <text
     style="font-size:10.0px;font-style:normal;font-weight:normal;text-anchor:start;fill:#000000;font-family:serif"
     x="36.040489"
     y="829.08313"
     id="text254">
    <tspan
       x="36.040489"
       y="829.08313"
       id="tspan256">1</tspan>
  </text>
  <text
     style="font-size:10.0px;font-style:normal;font-weight:normal;text-anchor:start;fill:#000000;font-family:serif"
     x="26.465233"
     y="841.75635"
     id="text258">
    <tspan
       x="26.465233"
       y="841.75635"
       id="tspan260">1</tspan>
  </text>
  <text
     style="font-size:10.0px;font-style:normal;font-weight:normal;text-anchor:start;fill:#000000;font-family:serif"
     x="49.840153"
     y="823.73224"
     id="text262">
    <tspan
       x="49.840153"
       y="823.73224"
       id="tspan264">1</tspan>
  </text>
  <text
     style="font-size:10.0px;font-style:normal;font-weight:normal;text-anchor:start;fill:#000000;font-family:serif"
     x="58.288975"
     y="837.53198"
     id="text266">
    <tspan
       x="58.288975"
       y="837.53198"
       id="tspan268">1</tspan>
  </text>
  <text
     style="font-size:10.0px;font-style:normal;font-weight:normal;text-anchor:start;fill:#000000;font-family:serif"
     x="58.288975"
     y="761.49255"
     id="text270">
    <tspan
       x="58.288975"
       y="761.49255"
       id="tspan272">1</tspan>
  </text>
  <text
     style="font-size:10.0px;font-style:normal;font-weight:normal;text-anchor:start;fill:#000000;font-family:serif"
     x="-73.794189"
     y="749.9458"
     id="text274">
    <tspan
       x="-73.794189"
       y="749.9458"
       id="tspan276">2</tspan>
  </text>
  <text
     style="font-size:10.0px;font-style:normal;font-weight:normal;text-anchor:start;fill:#000000;font-family:serif"
     x="-75.765724"
     y="734.17462"
     id="text278">
    <tspan
       x="-75.765724"
       y="734.17462"
       id="tspan280">2</tspan>
  </text>
  <text
     style="font-size:10.0px;font-style:normal;font-weight:normal;text-anchor:start;fill:#000000;font-family:serif"
     x="-62.247383"
     y="726.5708"
     id="text282">
    <tspan
       x="-62.247383"
       y="726.5708"
       id="tspan284">2</tspan>
  </text>
  <text
     style="font-size:10.0px;font-style:normal;font-weight:normal;text-anchor:start;fill:#000000;font-family:serif"
     x="-41.125332"
     y="733.89319"
     id="text286">
    <tspan
       x="-41.125332"
       y="733.89319"
       id="tspan288">2</tspan>
  </text>
  <text
     style="font-size:10.0px;font-style:normal;font-weight:normal;text-anchor:start;fill:#000000;font-family:serif"
     x="-55.770103"
     y="758.39465"
     id="text290">
    <tspan
       x="-55.770103"
       y="758.39465"
       id="tspan292">2</tspan>
  </text>
  <text
     style="font-size:10.0px;font-style:normal;font-weight:normal;text-anchor:start;fill:#000000;font-family:serif"
     x="-59.994514"
     y="778.3902"
     id="text294">
    <tspan
       x="-59.994514"
       y="778.3902"
       id="tspan296">2</tspan>
  </text>
  <text
     style="font-size:10.0px;font-style:normal;font-weight:normal;text-anchor:start;fill:#000000;font-family:serif"
     x="-41.125332"
     y="789.09192"
     id="text298">
    <tspan
       x="-41.125332"
       y="789.09192"
       id="tspan300">2</tspan>
  </text>
  <text
     style="font-size:10.0px;font-style:normal;font-weight:normal;text-anchor:start;fill:#000000;font-family:serif"
     x="-38.872463"
     y="807.96106"
     id="text302">
    <tspan
       x="-38.872463"
       y="807.96106"
       id="tspan304">2</tspan>
  </text>
  <text
     style="font-size:10.0px;font-style:normal;font-weight:normal;text-anchor:start;fill:#000000;font-family:serif"
     x="-21.974821"
     y="812.18549"
     id="text306">
    <tspan
       x="-21.974821"
       y="812.18549"
       id="tspan308">2</tspan>
  </text>
  <text
     style="font-size:10.0px;font-style:normal;font-weight:normal;text-anchor:start;fill:#000000;font-family:serif"
     x="-9.3015842"
     y="805.98962"
     id="text310">
    <tspan
       x="-9.3015842"
       y="805.98962"
       id="tspan312">2</tspan>
  </text>
  <text
     style="font-size:10px;font-style:normal;font-weight:normal;text-anchor:start;fill:#000000;font-family:serif"
     x="-18.876848"
     y="791.06342"
     id="text314">
    <tspan
       x="-18.876848"
       y="791.06342"
       id="tspan316">2</tspan>
  </text>
  <text
     style="font-size:10.0px;font-style:normal;font-weight:normal;text-anchor:start;fill:#000000;font-family:serif"
     x="-15.778871"
     y="774.16577"
     id="text318">
    <tspan
       x="-15.778871"
       y="774.16577"
       id="tspan320">2</tspan>
  </text>
  <text
     style="font-size:10.0px;font-style:normal;font-weight:normal;text-anchor:start;fill:#000000;font-family:serif"
     x="-34.648052"
     y="761.49255"
     id="text322">
    <tspan
       x="-34.648052"
       y="761.49255"
       id="tspan324">2</tspan>
  </text>
  <text
     style="font-size:10.0px;font-style:normal;font-weight:normal;text-anchor:start;fill:#000000;font-family:serif"
     x="-23.101255"
     y="748.81934"
     id="text326">
    <tspan
       x="-23.101255"
       y="748.81934"
       id="tspan328">2</tspan>
  </text>
  <text
     style="font-size:10.0px;font-style:normal;font-weight:normal;text-anchor:start;fill:#000000;font-family:serif"
     x="-9.3015842"
     y="757.26819"
     id="text330">
    <tspan
       x="-9.3015842"
       y="757.26819"
       id="tspan332">2</tspan>
  </text>
  <text
     style="font-size:10.0px;font-style:normal;font-weight:normal;text-anchor:start;fill:#000000;font-family:serif"
     x="1.1187702"
     y="776.13727"
     id="text334">
    <tspan
       x="1.1187702"
       y="776.13727"
       id="tspan336">2</tspan>
  </text>
  <path
     style="fill:none;stroke:#000000;stroke-width:0.75;stroke-linecap:butt;stroke-linejoin:miter;stroke-opacity:1;stroke-miterlimit:4;stroke-dasharray:none"
     d="m 386.63366,213.14623 3.4e-4,60.24876 -37.38352,0"
     id="path3177"
     transform="matrix(0.56321745,0,0,0.56321745,-151.08824,692)"
     sodipodi:nodetypes="ccc" />
  <path
     style="fill:none;stroke:#000000;stroke-width:0.75;stroke-linecap:butt;stroke-linejoin:miter;stroke-opacity:1;stroke-miterlimit:4;stroke-dasharray:none"
     d="m 161.73808,273.39499 120.00793,0"
     id="path3951"
     transform="matrix(0.56321745,0,0,0.56321745,-151.08824,692)" />
  <path
     style="fill:none;stroke:#000000;stroke-width:0.75;stroke-linecap:butt;stroke-linejoin:miter;stroke-opacity:1;stroke-miterlimit:4;stroke-dasharray:none"
     d="m 64.231633,273.39499 -60.0036317,0 -3.357e-4,-82.50545"
     id="path3955"
     transform="matrix(0.56321745,0,0,0.56321745,-151.08824,692)"
     sodipodi:nodetypes="ccc" />
  <path
     style="fill:none;stroke:#000000;stroke-width:0.75;stroke-linecap:butt;stroke-linejoin:miter;stroke-opacity:1;stroke-miterlimit:4;stroke-dasharray:none"
     d="m 4.2276656,3.377137 0,112.507443"
     id="path3957"
     transform="matrix(0.56321745,0,0,0.56321745,-151.08824,692)" />
  <path
     style="fill:none;stroke:#000000;stroke-width:0.75;stroke-linecap:butt;stroke-linejoin:miter;stroke-opacity:1;stroke-miterlimit:4;stroke-dasharray:none"
     d="m 199.24056,3.377137 127.50843,0"
     id="path3959"
     transform="matrix(0.56321745,0,0,0.56321745,-151.08824,692)" />
  <path
     style="fill:none;stroke:#000000;stroke-width:0.75;stroke-linecap:butt;stroke-linejoin:miter;stroke-opacity:1;stroke-miterlimit:4;stroke-dasharray:none"
     d="m 386.634,130.77499 0,-127.398001 -59.88501,1.48e-4"
     id="path3963"
     transform="matrix(0.56321745,0,0,0.56321745,-151.08824,692)"
     sodipodi:nodetypes="ccc" />
</svg>
